<svg width="172" height="160" viewBox="0 0 172 160" fill="none" xmlns="http://www.w3.org/2000/svg">
<path fill-rule="evenodd" clip-rule="evenodd" d="M79.3998 57.1533V81.966H29.7748C30.2967 113.569 48.5798 133.681 82.0114 133.157C121.972 133.157 138.688 97.8975 138.688 62.1153C138.688 60.4586 138.64 58.8046 138.568 57.1533H171.239C171.304 58.7981 171.336 60.4524 171.336 62.1155C171.336 115.398 137.905 159.799 82.0114 159.799C59.2883 159.799 43.3556 153.269 25.8567 133.419L20.8948 155.358H0.00012207V57.1533H79.3998Z" fill="white"/>
<path fill-rule="evenodd" clip-rule="evenodd" d="M13.4003 40.7124H24.1344C28.3848 40.7124 31.3394 39.1983 31.3394 34.9481C31.3394 30.409 28.1693 28.8966 24.1344 28.8966H13.4003V40.7124ZM13.4003 20.2507H23.7738C26.0794 20.2507 29.2496 19.0273 29.2496 15.3529C29.2496 11.6067 26.5834 10.3814 23.7738 10.3814H13.4003V20.2507ZM0 0.00617655H24.0628C32.9239 -0.137485 42.6496 2.16815 42.6496 12.9022C42.6496 17.5132 39.9118 21.2605 35.8783 23.2772C41.3524 24.8617 44.7394 29.6174 44.7394 35.4521C44.7394 47.7005 35.7332 51.4465 24.7104 51.4465H0V0.00617655Z" fill="white"/>
<path fill-rule="evenodd" clip-rule="evenodd" d="M94.1559 30.1936C94.1559 45.1062 87.3114 52.5268 71.7508 52.5268C56.1889 52.5268 49.3444 45.1062 49.3444 30.1936V0.00622559H62.7446V30.9865C62.7446 37.6141 65.1937 40.9995 71.7508 40.9995C78.3066 40.9995 80.7556 37.6141 80.7556 30.9865V0.00622559H94.1559V30.1936Z" fill="white"/>
<path fill-rule="evenodd" clip-rule="evenodd" d="M126.932 32.282V51.4465H113.531V32.282L94.8009 0.0062561H110.002L120.232 20.9003L130.462 0.0062561H145.664L126.932 32.282Z" fill="white"/>
</svg>
