<svg width="130" height="120" viewBox="0 0 130 120" fill="none" xmlns="http://www.w3.org/2000/svg">
<g clip-path="url(#clip0_421_36134)">
<path fill-rule="evenodd" clip-rule="evenodd" d="M60.3338 42.9077V61.5172H23.115C23.5065 85.2195 37.2188 100.303 62.2925 99.9107C92.2633 99.9107 104.8 73.4659 104.8 46.6292C104.8 45.3867 104.764 44.1462 104.71 42.9077H129.213C129.262 44.1413 129.286 45.3821 129.286 46.6294C129.286 86.5911 104.213 119.892 62.2925 119.892C45.2502 119.892 33.3007 114.995 20.1765 100.107L16.455 116.562H0.784058V42.9077H60.3338Z" fill="#E25B8B"/>
<path fill-rule="evenodd" clip-rule="evenodd" d="M10.8342 30.577H18.8848C22.0726 30.577 24.2886 29.4414 24.2886 26.2538C24.2886 22.8495 21.911 21.7152 18.8848 21.7152H10.8342V30.577ZM10.8342 15.2307H18.6143C20.3436 15.2307 22.7212 14.3132 22.7212 11.5574C22.7212 8.74778 20.7215 7.82877 18.6143 7.82877H10.8342V15.2307ZM0.783997 0.047357H18.8311C25.477 -0.0603895 32.7712 1.66884 32.7712 9.7194C32.7712 13.1776 30.7179 15.9881 27.6927 17.5006C31.7983 18.689 34.3386 22.2558 34.3386 26.6318C34.3386 35.8181 27.5839 38.6276 19.3168 38.6276H0.783997V0.047357Z" fill="#E25B8B"/>
<path fill-rule="evenodd" clip-rule="evenodd" d="M71.401 22.6879C71.401 33.8724 66.2676 39.4378 54.5972 39.4378C42.9257 39.4378 37.7923 33.8724 37.7923 22.6879V0.0473633H47.8425V23.2826C47.8425 28.2533 49.6793 30.7923 54.5972 30.7923C59.514 30.7923 61.3507 28.2533 61.3507 23.2826V0.0473633H71.401V22.6879Z" fill="#E25B8B"/>
<path fill-rule="evenodd" clip-rule="evenodd" d="M95.9827 24.2542V38.6276H85.9325V24.2542L71.8846 0.0473633H83.2855L90.9581 15.7179L98.6307 0.0473633H110.032L95.9827 24.2542Z" fill="#E25B8B"/>
</g>
<defs>
<clipPath id="clip0_421_36134">
<rect width="128.662" height="120" fill="white" transform="translate(0.669006)"/>
</clipPath>
</defs>
</svg>
