<svg width="250" height="250" viewBox="0 0 250 250" fill="none" xmlns="http://www.w3.org/2000/svg">
<rect width="250" height="250" fill="#EFEFEF"/>
<g clip-path="url(#clip0_354_21479)">
<path d="M164.823 149.258C153.259 157.775 139.274 162.37 124.912 162.37C110.55 162.37 96.5654 157.775 85.0015 149.258C58.2483 160.64 33.2493 187.897 33.2493 250H216.751C216.751 187.897 191.774 160.64 164.823 149.258Z" fill="white"/>
<path d="M185.897 94.8967C185.897 82.8525 182.325 71.0787 175.634 61.0643C168.942 51.0499 159.431 43.2446 148.304 38.6355C137.177 34.0264 124.932 32.8204 113.12 35.1701C101.307 37.5199 90.4561 43.3197 81.9395 51.8362C73.423 60.3528 67.6231 71.2035 65.2734 83.0163C62.9237 94.8291 64.1297 107.073 68.7388 118.201C73.3479 129.328 81.1532 138.839 91.1676 145.53C101.182 152.222 112.956 155.793 125 155.793C141.145 155.776 156.625 149.354 168.041 137.938C179.458 126.521 185.879 111.042 185.897 94.8967Z" fill="white"/>
</g>
<defs>
<clipPath id="clip0_354_21479">
<rect width="216" height="216" fill="white" transform="translate(17 34)"/>
</clipPath>
</defs>
</svg>
