<svg width="50" height="50" viewBox="0 0 50 50" fill="none" xmlns="http://www.w3.org/2000/svg">
<path d="M26.0309 50C18.2745 50 11.6538 47.432 6.89085 42.5777C2.44763 38.0485 0 31.8058 0 25C0 18.1942 2.44763 11.9515 6.89085 7.42233C11.6538 2.56796 18.2745 0 26.0309 0C32.4697 0 36.9349 1.63592 41.4168 5.76699L42.4476 1.6699C42.49 1.50854 42.5931 1.36456 42.7403 1.26143C42.8874 1.15829 43.0699 1.10208 43.258 1.10194H49.1731C49.3924 1.10194 49.6027 1.17866 49.7578 1.31521C49.9129 1.45177 50 1.63698 50 1.8301V26.2136C50 26.4067 49.9129 26.5919 49.7578 26.7285C49.6027 26.865 49.3924 26.9417 49.1731 26.9417H26.7696C26.5503 26.9417 26.3399 26.865 26.1849 26.7285C26.0298 26.5919 25.9427 26.4067 25.9427 26.2136V20.068C25.9427 19.8748 26.0298 19.6896 26.1849 19.5531C26.3399 19.4165 26.5503 19.3398 26.7696 19.3398H39.9173C39.4763 12.1553 34.5921 8.07282 26.3892 8.07282H26.0474C14.8401 8.07282 10.8655 17.1893 10.8655 24.9951C10.8655 32.801 14.8401 41.9175 26.0309 41.9175C34.5204 41.9175 38.1974 37.2961 38.7707 33.3398C38.7973 33.1643 38.8951 33.0033 39.0461 32.8864C39.1971 32.7695 39.391 32.7047 39.5921 32.7039H48.5832C48.7002 32.7038 48.8159 32.7256 48.9227 32.7679C49.0294 32.8101 49.1247 32.8718 49.2023 32.9489C49.28 33.026 49.3382 33.1167 49.373 33.215C49.4079 33.3134 49.4187 33.4171 49.4046 33.5194C48.0651 43.534 38.892 50 26.0309 50ZM26.0309 1.45631C11.6759 1.45631 1.6538 11.1359 1.6538 25C1.6538 38.8641 11.6759 48.5437 26.0309 48.5437C37.828 48.5437 46.0143 43.0583 47.6351 34.165H40.3032C38.9857 40.5243 32.2767 43.3883 26.0309 43.3883C20.5678 43.3883 16.108 41.3835 13.1257 37.5631C10.6009 34.3447 9.21169 29.8786 9.21169 24.9903C9.21169 20.1019 10.6009 15.6359 13.1257 12.4175C16.1025 8.6165 20.5678 6.59223 26.0309 6.59223C35.6009 6.45631 41.4664 11.4806 41.5987 20.0243C41.6054 20.1219 41.5897 20.2197 41.5525 20.3119C41.5153 20.404 41.4575 20.4886 41.3824 20.5607C41.3072 20.6327 41.2164 20.6907 41.1153 20.7311C41.0142 20.7716 40.9049 20.7937 40.7938 20.7961H27.5965V25.5049H48.3462V2.55825H43.9361L42.6847 7.44175C42.6501 7.57245 42.576 7.69248 42.4702 7.78906C42.3644 7.88565 42.2309 7.95519 42.0838 7.99029C41.9355 8.02391 41.7795 8.02036 41.6334 7.98005C41.4873 7.93973 41.3569 7.86425 41.2569 7.76214C36.6538 3.16505 32.5248 1.45631 26.0309 1.45631Z" fill="#111111"/>
</svg>
