<svg width="18" height="20" viewBox="0 0 18 20" fill="none" xmlns="http://www.w3.org/2000/svg">
<g clip-path="url(#clip0_1116_10738)">
<path d="M17.5146 0.440777H15.4388C15.3713 0.439046 15.3052 0.460714 15.2517 0.502113C15.1983 0.543512 15.1608 0.6021 15.1456 0.667961L14.7748 2.3068C13.2039 0.654369 11.6311 0 9.36311 0C6.63108 0 4.29904 1.02718 2.62137 2.96893C1.05632 4.78058 0.194183 7.27767 0.194183 10C0.194183 12.7223 1.05632 15.2194 2.62137 17.0311C4.29904 18.9728 6.63108 20 9.36311 20C13.8932 20 17.1301 17.4136 17.5961 13.4097C17.6011 13.3688 17.5973 13.3273 17.585 13.288C17.5727 13.2486 17.5522 13.2123 17.5249 13.1815C17.4975 13.1507 17.4639 13.126 17.4264 13.1091C17.3888 13.0922 17.348 13.0835 17.3068 13.0835H14.1398C14.069 13.0838 14.0007 13.1097 13.9475 13.1565C13.8943 13.2033 13.8599 13.2677 13.8505 13.3379C13.6563 14.9204 12.3534 16.7689 9.36311 16.7689C5.42137 16.7689 4.02137 13.1223 4.02137 10C4.02137 6.87767 5.42137 3.23107 9.36894 3.23107H9.48933C12.3786 3.23107 14.099 4.86408 14.2544 7.73786H9.62331C9.54606 7.73786 9.47198 7.76855 9.41736 7.82317C9.36273 7.8778 9.33205 7.95188 9.33205 8.02913V10.4854C9.33205 10.5627 9.36273 10.6368 9.41736 10.6914C9.47198 10.746 9.54606 10.7767 9.62331 10.7767H17.5146C17.5918 10.7767 17.6659 10.746 17.7205 10.6914C17.7751 10.6368 17.8058 10.5627 17.8058 10.4854V0.732039C17.8058 0.654791 17.7751 0.580708 17.7205 0.526085C17.6659 0.471463 17.5918 0.440777 17.5146 0.440777Z" fill="#2E9A60"/>
</g>
<defs>
<clipPath id="clip0_1116_10738">
<rect width="17.6116" height="20" fill="white" transform="translate(0.194183)"/>
</clipPath>
</defs>
</svg>
