<svg width="32" height="32" viewBox="0 0 32 32" fill="none" xmlns="http://www.w3.org/2000/svg">
<path d="M22.5592 16.8486C22.2961 17.0882 22.0193 17.3124 21.7303 17.52C25.5914 19.1559 29.1815 23.0738 29.1815 32.0001H30.1271C30.1397 24.4165 27.4479 19.1748 22.5592 16.8486Z" fill="#111111"/>
<path d="M1.87289 32.0001H2.81848C2.81848 23.0738 6.41172 19.1559 10.2697 17.52C9.98501 17.312 9.71244 17.0878 9.45336 16.8486C4.56782 19.1748 1.87289 24.4165 1.87289 32.0001Z" fill="#111111"/>
<path d="M25.7049 9.70618C25.7062 8.09305 25.305 6.50509 24.5379 5.08607C23.7707 3.66705 22.6617 2.4618 21.3112 1.57945C19.9608 0.697103 18.4116 0.165528 16.804 0.0328587C15.1963 -0.0998107 13.5809 0.170616 12.1041 0.819651C10.6273 1.46869 9.33575 2.47583 8.34633 3.74989C7.3569 5.02395 6.70089 6.52468 6.4377 8.11619C6.17451 9.70771 6.31244 11.3397 6.83902 12.8645C7.36559 14.3893 8.26417 15.7586 9.45339 16.8485C9.71247 17.0877 9.98504 17.3119 10.2698 17.5199C11.9319 18.7441 13.942 19.4044 16.0063 19.4044C18.0706 19.4044 20.0808 18.7441 21.7429 17.5199C22.0276 17.3119 22.3002 17.0877 22.5592 16.8485C23.5509 15.9418 24.3427 14.8384 24.8843 13.6087C25.4259 12.3789 25.7054 11.0499 25.7049 9.70618V9.70618ZM7.25333 9.70618C7.25333 7.975 7.76668 6.2827 8.72847 4.84328C9.69026 3.40386 11.0573 2.28196 12.6567 1.61947C14.2561 0.956976 16.016 0.783637 17.7139 1.12137C19.4119 1.45911 20.9715 2.29275 22.1956 3.51688C23.4198 4.74101 24.2534 6.30064 24.5911 7.99856C24.9289 9.69647 24.7555 11.4564 24.093 13.0558C23.4305 14.6552 22.3086 16.0222 20.8692 16.984C19.4298 17.9458 17.7375 18.4592 16.0063 18.4592C13.6857 18.4567 11.4607 17.5337 9.81978 15.8927C8.17882 14.2518 7.25583 12.0269 7.25333 9.70618V9.70618Z" fill="#111111"/>
</svg>
