<svg width="172" height="160" viewBox="0 0 172 160" fill="none" xmlns="http://www.w3.org/2000/svg">
<g clip-path="url(#clip0_405_24511)">
<path fill-rule="evenodd" clip-rule="evenodd" d="M92.1342 100.774V76.4279H141.723C141.201 45.4183 122.932 25.6845 89.5245 26.198C49.5928 26.198 32.8894 60.7955 32.8894 95.9056C32.8894 97.5312 32.9376 99.1543 33.0096 100.774H0.361898C0.297065 99.1605 0.264648 97.5374 0.264648 95.9056C0.264648 43.6242 33.6717 0.0571594 89.5245 0.0571594C112.231 0.0571594 128.152 6.46392 145.638 25.9405L150.596 4.41378H171.476V100.774H92.1342Z" fill="white"/>
<path fill-rule="evenodd" clip-rule="evenodd" d="M13.5275 142.226C13.8097 148.033 17.4711 149.9 23.0344 149.9C26.9766 149.9 31.0602 148.517 31.0602 144.852C31.0602 140.497 23.8781 139.667 16.626 137.662C9.44384 135.657 1.91059 132.476 1.91059 123.419C1.91059 112.634 12.9646 108.416 22.3998 108.416C32.3982 108.416 42.4679 113.186 42.5382 124.318H29.4417C29.6522 119.824 25.3578 118.372 21.3441 118.372C18.5282 118.372 15.0071 119.34 15.0071 122.589C15.0071 126.392 22.2596 127.083 29.582 129.089C36.8344 131.093 44.157 134.413 44.157 143.332C44.157 155.845 33.3136 159.856 22.2596 159.856C10.7115 159.856 0.502626 154.878 0.430908 142.226H13.5275Z" fill="white"/>
<path fill-rule="evenodd" clip-rule="evenodd" d="M48.0258 109.452H88.0906V119.755H61.1223V128.397H85.7669V138.354H61.1223V147.756H88.7937V158.819H48.0258V109.452Z" fill="white"/>
<path fill-rule="evenodd" clip-rule="evenodd" d="M94.0005 109.452H107.097V147.756H130.544V158.819H94.0005V109.452Z" fill="white"/>
<path fill-rule="evenodd" clip-rule="evenodd" d="M134.766 109.452H147.862V147.756H171.309V158.819H134.766V109.452Z" fill="white"/>
</g>
<defs>
<clipPath id="clip0_405_24511">
<rect width="171.549" height="160" fill="white"/>
</clipPath>
</defs>
</svg>
