<svg width="130" height="120" viewBox="0 0 130 120" fill="none" xmlns="http://www.w3.org/2000/svg">
<path fill-rule="evenodd" clip-rule="evenodd" d="M69.7697 75.5807V57.3209H106.961C106.57 34.0637 92.8677 19.2633 67.8124 19.6485C37.8636 19.6485 25.3361 45.5966 25.3361 71.9292C25.3361 73.1484 25.3722 74.3657 25.4262 75.5807H0.94046C0.891836 74.3704 0.867523 73.1531 0.867523 71.9292C0.867523 32.7181 25.9228 0.0428467 67.8124 0.0428467C84.8422 0.0428467 96.7831 4.84792 109.898 19.4554L113.616 3.31031H129.276V75.5807H69.7697Z" fill="#2E9A60"/>
<path fill-rule="evenodd" clip-rule="evenodd" d="M10.8146 106.669C11.0263 111.025 13.7723 112.425 17.9448 112.425C20.9015 112.425 23.9642 111.388 23.9642 108.639C23.9642 105.373 18.5776 104.751 13.1385 103.246C7.75191 101.743 2.10197 99.3569 2.10197 92.5642C2.10197 84.4752 10.3925 81.3116 17.4689 81.3116C24.9676 81.3116 32.52 84.8897 32.5727 93.2383H22.7503C22.9082 89.868 19.6873 88.7791 16.6771 88.7791C14.5652 88.7791 11.9244 89.505 11.9244 91.9418C11.9244 94.7943 17.3637 95.3121 22.8555 96.8166C28.2948 98.3199 33.7868 100.81 33.7868 107.499C33.7868 116.884 25.6542 119.892 17.3637 119.892C8.70267 119.892 1.04599 116.158 0.992205 106.669H10.8146Z" fill="#2E9A60"/>
<path fill-rule="evenodd" clip-rule="evenodd" d="M36.6883 82.089H66.7369V89.8161H46.5107V96.2976H64.9942V103.765H46.5107V110.817H67.2643V119.114H36.6883V82.089Z" fill="#2E9A60"/>
<path fill-rule="evenodd" clip-rule="evenodd" d="M71.1694 82.089H80.9918V110.817H98.5772V119.114H71.1694V82.089Z" fill="#2E9A60"/>
<path fill-rule="evenodd" clip-rule="evenodd" d="M101.743 82.089H111.566V110.817H129.151V119.114H101.743V82.089Z" fill="#2E9A60"/>
</svg>
