<svg width="32" height="32" viewBox="0 0 32 32" fill="none" xmlns="http://www.w3.org/2000/svg">
<path d="M32 31.1694H0V7.78795H32V31.1694ZM0.883652 30.2857H31.1163V8.6716H0.883652V30.2857Z" fill="#111111"/>
<path d="M22.3858 8.22974H21.5021V6.69219C21.5021 3.89985 19.0898 1.71428 15.9999 1.71428C12.9101 1.71428 10.4889 3.89985 10.4889 6.69219V8.22974H9.60522V6.69219C9.60522 3.405 12.4152 0.830627 15.9999 0.830627C19.5846 0.830627 22.3858 3.405 22.3858 6.69219V8.22974Z" fill="#111111"/>
<path d="M22.1355 12.8012H20.6392L20.2828 14.38C19.0309 12.9573 17.8881 12.489 16.2621 12.489C12.2592 12.489 9.8645 15.6701 9.8645 19.4845C9.8645 23.299 12.2592 26.4801 16.2621 26.4801C19.1811 26.4801 21.6289 24.9278 21.9853 21.9175H19.7025C19.4786 23.6848 17.9352 24.5685 16.2621 24.5685C13.3991 24.5685 12.2032 22.0413 12.2032 19.4787C12.2032 16.9161 13.3991 14.38 16.2621 14.38C18.6568 14.3417 19.9647 15.782 20.0029 18.0471H16.4477V19.8144H22.1355V12.8012Z" fill="#111111"/>
</svg>
