<svg width="19" height="20" viewBox="0 0 19 20" fill="none" xmlns="http://www.w3.org/2000/svg">
<path d="M9.69627 20C6.96424 20 4.6322 18.9728 2.95453 17.0311C1.38948 15.2194 0.527344 12.7223 0.527344 10C0.527344 7.27767 1.38948 4.78058 2.95453 2.96893C4.6322 1.02718 6.96424 0 9.69627 0C11.9642 0 13.5371 0.654369 15.1157 2.3068L15.4788 0.667961C15.4937 0.603416 15.53 0.545825 15.5819 0.504571C15.6337 0.463316 15.698 0.44083 15.7642 0.440777H17.8477C17.925 0.440777 17.9991 0.471463 18.0537 0.526085C18.1083 0.580708 18.139 0.654791 18.139 0.732039V10.4854C18.139 10.5627 18.1083 10.6368 18.0537 10.6914C17.9991 10.746 17.925 10.7767 17.8477 10.7767H9.95647C9.87922 10.7767 9.80514 10.746 9.75052 10.6914C9.69589 10.6368 9.66521 10.5627 9.66521 10.4854V8.02718C9.66521 7.94994 9.69589 7.87585 9.75052 7.82123C9.80514 7.76661 9.87922 7.73592 9.95647 7.73592H14.5875C14.4322 4.86214 12.7118 3.22913 9.82249 3.22913H9.7021C5.75453 3.22913 4.35453 6.87573 4.35453 9.99806C4.35453 13.1204 5.75453 16.767 9.69627 16.767C12.6866 16.767 13.9817 14.9184 14.1837 13.3359C14.193 13.2657 14.2275 13.2013 14.2807 13.1546C14.3339 13.1078 14.4022 13.0819 14.473 13.0816H17.64C17.6812 13.0815 17.7219 13.0903 17.7595 13.1071C17.7971 13.124 17.8307 13.1487 17.858 13.1796C17.8854 13.2104 17.9059 13.2467 17.9182 13.286C17.9304 13.3254 17.9342 13.3669 17.9293 13.4078C17.4574 17.4136 14.2264 20 9.69627 20ZM9.69627 0.582524C4.63996 0.582524 1.10987 4.45437 1.10987 10C1.10987 15.5456 4.63996 19.4175 9.69627 19.4175C13.8516 19.4175 16.7351 17.2233 17.306 13.666H14.7235C14.2594 16.2097 11.8963 17.3553 9.69627 17.3553C7.772 17.3553 6.20113 16.5534 5.15064 15.0252C4.26132 13.7379 3.772 11.9515 3.772 9.99612C3.772 8.04078 4.26132 6.25437 5.15064 4.96699C6.19919 3.4466 7.772 2.63689 9.69627 2.63689C13.0671 2.58252 15.1332 4.59223 15.1798 8.00971C15.1821 8.04876 15.1766 8.08788 15.1635 8.12474C15.1504 8.16161 15.13 8.19546 15.1036 8.22427C15.0771 8.25308 15.0451 8.27627 15.0095 8.29245C14.9739 8.30863 14.9354 8.31747 14.8963 8.31845H10.2477V10.2019H17.5565V1.0233H16.0031L15.5623 2.9767C15.5501 3.02898 15.524 3.07699 15.4868 3.11563C15.4495 3.15426 15.4025 3.18208 15.3506 3.19612C15.2984 3.20956 15.2435 3.20814 15.192 3.19202C15.1405 3.17589 15.0946 3.1457 15.0594 3.10485C13.438 1.26602 11.9837 0.582524 9.69627 0.582524Z" fill="#C4C4C4"/>
</svg>
