<svg width="50" height="32" viewBox="0 0 50 32" fill="none" xmlns="http://www.w3.org/2000/svg">
<path d="M29.026 18.3926H24.7261C24.4772 18.3934 24.2388 18.4928 24.063 18.6691C23.8873 18.8453 23.7886 19.0841 23.7886 19.333V21.8201C23.7902 22.068 23.8896 22.3052 24.0651 22.4802C24.2407 22.6552 24.4782 22.7538 24.7261 22.7546H29.026C29.2752 22.7538 29.514 22.6545 29.6902 22.4783C29.8664 22.3021 29.9657 22.0634 29.9665 21.8142V19.333C29.9657 19.0838 29.8664 18.8451 29.6902 18.6689C29.514 18.4927 29.2752 18.3934 29.026 18.3926ZM29.0793 21.8201C29.0793 21.8342 29.0737 21.8478 29.0637 21.8577C29.0537 21.8677 29.0402 21.8733 29.026 21.8733H24.7261C24.7125 21.8726 24.6997 21.8666 24.6904 21.8567C24.681 21.8468 24.6758 21.8337 24.6758 21.8201V19.333C24.6758 19.3194 24.681 19.3063 24.6904 19.2964C24.6997 19.2865 24.7125 19.2805 24.7261 19.2798H29.026C29.0402 19.2798 29.0537 19.2854 29.0637 19.2954C29.0737 19.3053 29.0793 19.3189 29.0793 19.333V21.8201Z" fill="#111111"/>
<path d="M47.666 17.183V1.9055C47.6653 1.55279 47.5248 1.21475 47.2754 0.96535C47.026 0.715947 46.688 0.575488 46.3353 0.574707H16.4663C16.1136 0.575488 15.7756 0.715947 15.5262 0.96535C15.2768 1.21475 15.1363 1.55279 15.1356 1.9055V9.74239H1.33079C0.980626 9.74314 0.644798 9.88157 0.395812 10.1278C0.146826 10.374 0.00465776 10.7083 0 11.0584L0 30.0947C0.000781195 30.4474 0.14124 30.7854 0.390643 31.0348C0.640046 31.2842 0.978085 31.4247 1.33079 31.4255H31.1997C31.5521 31.4247 31.8899 31.2841 32.1388 31.0346C32.3877 30.7851 32.5275 30.4471 32.5275 30.0947V22.2726H37.5786V26.9688C37.5786 28.4474 41.4912 28.8585 43.789 28.8585C46.0868 28.8585 49.9994 28.4593 49.9994 26.9688V18.7119C50.029 17.943 48.9909 17.4669 47.666 17.183ZM43.8038 24.7301C45.4333 24.7301 47.8524 24.5319 49.127 23.8961V24.8898C48.9732 25.2476 47.0214 25.9071 43.8038 25.9071C40.5862 25.9071 38.6048 25.2417 38.4806 24.9046V23.8961C39.7582 24.529 42.1773 24.7301 43.8038 24.7301ZM38.4806 22.8404V21.8319C39.77 22.4677 42.1891 22.6659 43.8038 22.6659C45.4185 22.6659 47.8524 22.4677 49.127 21.8319V22.8256C48.9732 23.1834 47.0214 23.8429 43.8038 23.8429C40.5862 23.8429 38.6048 23.1775 38.4688 22.8404H38.4806ZM49.1536 20.7702C48.9998 21.1281 47.048 21.7876 43.8304 21.7876C40.6129 21.7876 38.6314 21.1222 38.5072 20.785V19.7677C39.7966 20.4035 42.2157 20.6017 43.8304 20.6017C45.4451 20.6017 47.879 20.4035 49.1536 19.7677V20.7702ZM49.1536 18.7208C48.9525 19.0816 47.0066 19.7233 43.8304 19.7233C40.6543 19.7233 38.7024 19.0816 38.5072 18.7208C38.7083 18.36 40.6513 17.7183 43.8304 17.7183C47.0095 17.7183 48.9347 18.3511 49.1358 18.7119L49.1536 18.7208ZM16.0198 1.9055C16.0198 1.78785 16.0665 1.67502 16.1497 1.59183C16.2329 1.50864 16.3457 1.4619 16.4634 1.4619H46.3323C46.45 1.4619 46.5628 1.50864 46.646 1.59183C46.7292 1.67502 46.7759 1.78785 46.7759 1.9055V5.01068H16.0198V1.9055ZM16.0198 5.89492H46.7759V8.08925H16.0198V5.89492ZM31.6433 30.0947C31.6433 30.2118 31.597 30.3242 31.5144 30.4073C31.4319 30.4904 31.3198 30.5375 31.2027 30.5383H1.33079C1.21314 30.5383 1.10031 30.4915 1.01712 30.4083C0.933932 30.3251 0.887195 30.2123 0.887195 30.0947V11.0584C0.891033 10.9433 0.939458 10.8343 1.02224 10.7542C1.10501 10.6742 1.21566 10.6295 1.33079 10.6296H31.1997C31.3168 10.6304 31.4289 10.6775 31.5115 10.7606C31.594 10.8437 31.6403 10.956 31.6403 11.0732L31.6433 30.0947ZM37.5816 18.7119V21.3735H32.5305V11.0584C32.5305 10.706 32.3907 10.3679 32.1418 10.1184C31.8928 9.86894 31.5551 9.72839 31.2027 9.72761H16.0198V8.97645H46.7759V17.0263C45.7901 16.8901 44.796 16.8219 43.8008 16.8222C41.4941 16.8222 37.5816 17.2215 37.5816 18.7119ZM43.792 27.9713C40.5389 27.9713 38.593 27.3059 38.4688 26.9688V25.9574C39.7582 26.5962 42.1773 26.7943 43.792 26.7943C45.4067 26.7943 47.8405 26.5962 49.1151 25.9574V26.954C48.988 27.3118 47.0361 27.9713 43.8038 27.9713H43.792Z" fill="#111111"/>
</svg>
