<svg width="32" height="32" viewBox="0 0 32 32" fill="none" xmlns="http://www.w3.org/2000/svg">
<path d="M29.3005 5.09707C27.2711 2.41668 24.1304 1.39247 20.8861 2.35403C18.6552 3.01868 16.8519 4.49507 15.983 6.23569C15.1195 4.49507 13.319 3.01868 11.0798 2.35403C7.8465 1.39247 4.70576 2.41668 2.6764 5.09707C0.864965 7.5214 0.508125 10.4442 1.67126 13.5741C2.53748 15.8922 4.26993 18.3437 6.4491 20.2832L6.59347 20.414C9.17307 22.7538 13.5314 26.6682 15.5308 30.0568C15.5789 30.1387 15.6475 30.2067 15.73 30.2539C15.8124 30.3011 15.9057 30.3259 16.0007 30.3259C16.0957 30.3259 16.189 30.3011 16.2714 30.2539C16.3539 30.2067 16.4225 30.1387 16.4706 30.0568C18.4591 26.6627 22.8147 22.7484 25.4188 20.4085L25.5632 20.2778C27.726 18.3437 29.4639 15.8922 30.3301 13.5741C31.4933 10.4442 31.1364 7.5214 29.3005 5.09707Z" fill="#E25B8B"/>
</svg>
