<svg width="50" height="50" viewBox="0 0 50 50" fill="none" xmlns="http://www.w3.org/2000/svg">
<path d="M25 48.5978C24.8804 48.598 24.7629 48.5668 24.6591 48.5073C24.5554 48.4478 24.4691 48.3621 24.4089 48.2587C21.0456 42.5219 13.7004 35.919 9.31064 31.9737L9.06779 31.7583C5.45245 28.5096 2.55652 24.4269 1.11314 20.5595C-0.815959 15.3908 -0.229441 10.5337 2.80854 6.51974C6.16269 2.08878 11.3543 0.397954 16.6971 1.98797C20.5782 3.14267 23.6712 5.77742 25 8.86123C26.3288 5.77742 29.4218 3.14267 33.3029 1.98797C38.6457 0.397954 43.8419 2.08878 47.1915 6.51974C50.2294 10.5337 50.816 15.3908 48.8869 20.5595C47.4481 24.4269 44.5475 28.5096 40.9322 31.7583L40.6939 31.9737C36.3042 35.919 28.959 42.5127 25.5957 48.2633C25.5338 48.3659 25.4464 48.4506 25.342 48.5092C25.2376 48.5679 25.1197 48.5984 25 48.5978ZM12.8298 2.7761C11.0859 2.77782 9.36745 3.19422 7.81623 3.99094C6.26502 4.78766 4.92551 5.94186 3.90826 7.35827C1.12688 11.024 0.618261 15.3038 2.40073 20.0784C3.77538 23.7441 6.52468 27.6298 9.98422 30.7365L10.2271 30.9519C14.4381 34.7368 21.3297 40.9319 25 46.6046C28.6657 40.9319 35.5665 34.7368 39.7729 30.9519L40.0158 30.7365C43.4662 27.6298 46.2338 23.7487 47.5993 20.0784C49.3817 15.3038 48.8731 11.024 46.0963 7.35827C44.7246 5.45727 42.7849 4.04076 40.5566 3.3128C38.3283 2.58485 35.9264 2.58304 33.697 3.30763C29.2981 4.60897 25.9302 8.13724 25.6873 11.6747C25.6873 11.857 25.6149 12.0318 25.486 12.1607C25.3571 12.2896 25.1823 12.362 25 12.362C24.8177 12.362 24.6429 12.2896 24.514 12.1607C24.3851 12.0318 24.3127 11.857 24.3127 11.6747C24.0698 8.13724 20.7019 4.60897 16.303 3.30763C15.1771 2.96331 14.0071 2.78427 12.8298 2.7761Z" fill="#111111"/>
</svg>
