<svg width="24" height="24" viewBox="0 0 24 24" fill="none" xmlns="http://www.w3.org/2000/svg">
<rect x="0.5" y="0.5" width="23" height="23" rx="11.5" stroke="#E25B8B"/>
<path d="M12.0708 8.97962C12.6239 8.97962 13.0752 8.54294 13.0752 7.98981C13.0752 7.43668 12.6239 7 12.0708 7C11.5177 7 11.081 7.43668 11.081 7.98981C11.081 8.54294 11.5177 8.97962 12.0708 8.97962ZM13.7156 17V16.7525C13.1916 16.607 13.1188 16.0393 13.1188 15.2242V10.1441L10.5715 10.7263V10.9738C11.1683 11.294 11.3139 11.4978 11.3139 11.9927V15.2242C11.3139 15.9665 11.2848 16.5779 10.7316 16.7525V17H13.7156Z" fill="#E25B8B"/>
</svg>
