<svg width="12" height="12" viewBox="0 0 12 12" fill="none" xmlns="http://www.w3.org/2000/svg">
<path d="M6.24741 12C4.38589 12 2.79691 11.3837 1.6538 10.2186C0.587431 9.13165 0 7.6334 0 6C0 4.3666 0.587431 2.86835 1.6538 1.78136C2.79691 0.616311 4.38589 0 6.24741 0C7.79272 0 8.86439 0.392621 9.94002 1.38408L10.1874 0.400777C10.1976 0.36205 10.2224 0.327495 10.2577 0.302742C10.293 0.27799 10.3368 0.264498 10.3819 0.264466H11.8015C11.8542 0.264466 11.9047 0.282878 11.9419 0.315651C11.9791 0.348425 12 0.392875 12 0.439223V6.29126C12 6.33761 11.9791 6.38206 11.9419 6.41483C11.9047 6.44761 11.8542 6.46602 11.8015 6.46602H6.4247C6.37206 6.46602 6.32159 6.44761 6.28437 6.41483C6.24715 6.38206 6.22624 6.33761 6.22624 6.29126V4.81631C6.22624 4.76996 6.24715 4.72551 6.28437 4.69274C6.32159 4.65997 6.37206 4.64155 6.4247 4.64155H9.58016C9.47431 2.91728 8.3021 1.93748 6.33341 1.93748H6.25138C3.56163 1.93748 2.60772 4.12544 2.60772 5.99884C2.60772 7.87223 3.56163 10.0602 6.24741 10.0602C8.2849 10.0602 9.16737 8.95107 9.30496 8.00155C9.31135 7.95944 9.33483 7.92079 9.37107 7.89273C9.40731 7.86468 9.45385 7.84912 9.5021 7.84893H11.66C11.6881 7.84892 11.7158 7.85415 11.7414 7.86429C11.7671 7.87442 11.7899 7.88923 11.8086 7.90773C11.8272 7.92623 11.8412 7.948 11.8495 7.97161C11.8579 7.99521 11.8605 8.02011 11.8571 8.04466C11.5356 10.4482 9.33407 12 6.24741 12ZM6.24741 0.349515C2.80221 0.349515 0.396913 2.67262 0.396913 6C0.396913 9.32738 2.80221 11.6505 6.24741 11.6505C9.07872 11.6505 11.0434 10.334 11.4324 8.19961H9.67277C9.35656 9.72583 7.74642 10.4132 6.24741 10.4132C4.93627 10.4132 3.86593 9.93204 3.15017 9.01515C2.54421 8.24272 2.2108 7.17087 2.2108 5.99767C2.2108 4.82447 2.54421 3.75262 3.15017 2.98019C3.86461 2.06796 4.93627 1.58214 6.24741 1.58214C8.54421 1.54951 9.95193 2.75534 9.98368 4.80583C9.98529 4.82925 9.98152 4.85273 9.9726 4.87485C9.96368 4.89696 9.94979 4.91727 9.93177 4.93456C9.91374 4.95185 9.89194 4.96576 9.86767 4.97547C9.8434 4.98518 9.81717 4.99048 9.79052 4.99107H6.62315V6.12117H11.6031V0.613981H10.5447L10.2443 1.78602C10.236 1.81739 10.2182 1.84619 10.1929 1.86938C10.1675 1.89256 10.1354 1.90925 10.1001 1.91767C10.0645 1.92574 10.0271 1.92489 9.99202 1.91521C9.95695 1.90554 9.92565 1.88742 9.90165 1.86291C8.79691 0.759612 7.80595 0.349515 6.24741 0.349515Z" fill="#E25B8B"/>
</svg>
