<svg width="50" height="50" viewBox="0 0 50 50" fill="none" xmlns="http://www.w3.org/2000/svg">
<path d="M24.9993 48.9954L24.4068 47.9802C23.0288 45.6836 20.8929 42.9551 17.9761 39.9235L18.9682 38.9727C21.2009 41.2276 23.2156 43.6883 24.9855 46.322C26.7587 43.6894 28.7748 41.2288 31.0074 38.9727L31.9996 39.9235C29.0966 42.9551 26.9469 45.6652 25.5689 47.9802L24.9993 48.9954Z" fill="#2E9A60"/>
<path d="M45.6557 26.1021L44.5578 25.2982C44.8105 24.9491 45.0539 24.5955 45.2882 24.2326C50.6073 16.0748 48.6735 10.3331 46.1196 6.95235C44.7452 5.0539 42.8045 3.63995 40.5761 2.91368C38.3478 2.18741 35.9466 2.18619 33.7175 2.9102C29.2987 4.2193 25.9318 7.74241 25.6883 11.2793H24.3103C24.0715 7.74241 20.6999 4.2193 16.3041 2.9102C14.0733 2.18891 11.6713 2.19387 9.4435 2.92435C7.21574 3.65483 5.27713 5.07318 3.9066 6.97532C1.34809 10.356 -0.581117 16.0977 4.738 24.2555C4.97226 24.6184 5.19733 24.9721 5.46834 25.3212L4.34756 26.1021C4.08574 25.7392 3.82851 25.3488 3.58506 24.9859C-0.916433 18.0958 -1.18285 11.3987 2.80878 6.12096C6.16194 1.69296 11.3524 -0.00199473 16.6991 1.5919C20.5805 2.74484 23.6718 5.37683 24.9993 8.43601C26.3314 5.37683 29.4227 2.74484 33.3041 1.5919C38.6462 -0.00199473 43.8413 1.69296 47.1944 6.12096C51.1861 11.3987 50.9105 18.0958 46.4182 24.9859C46.1747 25.3488 45.9359 25.7346 45.6557 26.1021Z" fill="#2E9A60"/>
<path d="M24.2506 24.1223H21.8299L19.9513 16.5754H19.9191L18.0818 24.1223H15.6197L12.6708 13.0339H15.1053L16.8599 20.5808H16.8921L18.8351 13.0339H21.1317L23.0288 20.6727H23.0564L24.8937 13.0339H27.2823L24.2506 24.1223Z" fill="#2E9A60"/>
<path d="M27.8931 13.0339H36.1611V15.0826H30.3184V17.4619H35.7018V19.3774H30.3184V22.0966H36.2897V24.1453H27.8931V13.0339Z" fill="#2E9A60"/>
<path d="M6.26294 26.6211H8.69742V35.6562H14.1038V37.7095H6.26294V26.6211Z" fill="#2E9A60"/>
<path d="M19.6572 26.3594C23.0884 26.3594 25.1049 28.9179 25.1049 32.2113C25.1049 35.4267 23.0884 37.9714 19.6572 37.9714C16.2259 37.9714 14.2048 35.4083 14.2048 32.2113C14.2048 28.9179 16.2259 26.3594 19.6572 26.3594ZM19.6572 35.9228C21.8436 35.9228 22.6658 34.0579 22.6658 32.2113C22.6658 30.2683 21.8436 28.408 19.6572 28.408C17.4707 28.408 16.6439 30.2683 16.6439 32.2113C16.6439 34.0762 17.4569 35.9136 19.6572 35.9136V35.9228Z" fill="#2E9A60"/>
<path d="M31.081 37.7095H28.325L24.7284 26.6211H27.2456L29.7122 34.4298H29.7443L32.2431 26.6211H34.7603L31.081 37.7095Z" fill="#2E9A60"/>
<path d="M35.3252 26.6211H43.6392V28.6697H37.7643V31.0445H43.1339V32.9416H37.7643V35.6562H43.7356V37.7095H35.3252V26.6211Z" fill="#2E9A60"/>
</svg>
