<svg width="32" height="32" viewBox="0 0 32 32" fill="none" xmlns="http://www.w3.org/2000/svg">
<path d="M32 31.1694H0V7.78795H32V31.1694ZM0.883652 30.2857H31.1163V8.6716H0.883652V30.2857Z" fill="#111111"/>
<path d="M22.386 8.22974H21.5024V6.69219C21.5024 3.89985 19.09 1.71428 16.0002 1.71428C12.9103 1.71428 10.4891 3.89985 10.4891 6.69219V8.22974H9.60547V6.69219C9.60547 3.405 12.4155 0.830627 16.0002 0.830627C19.5848 0.830627 22.386 3.405 22.386 6.69219V8.22974Z" fill="#111111"/>
<path d="M22.1357 12.8012H20.6394L20.283 14.38C19.0312 12.9573 17.8883 12.489 16.2624 12.489C12.2594 12.489 9.86475 15.6701 9.86475 19.4845C9.86475 23.299 12.2594 26.4801 16.2624 26.4801C19.1814 26.4801 21.6291 24.9278 21.9855 21.9175H19.7027C19.4789 23.6848 17.9354 24.5685 16.2624 24.5685C13.3994 24.5685 12.2035 22.0413 12.2035 19.4787C12.2035 16.9161 13.3994 14.38 16.2624 14.38C18.6571 14.3417 19.9649 15.782 20.0032 18.0471H16.448V19.8144H22.1357V12.8012Z" fill="#111111"/>
</svg>
