<svg width="108" height="100" viewBox="0 0 108 100" fill="none" xmlns="http://www.w3.org/2000/svg">
<g clip-path="url(#clip0_630_86588)">
<path fill-rule="evenodd" clip-rule="evenodd" d="M50.1115 35.7565V51.2644H19.0959C19.4221 71.0163 30.849 83.586 51.7438 83.2589C76.7195 83.2589 87.1666 61.2216 87.1666 38.8577C87.1666 37.8223 87.1365 36.7885 87.0915 35.7565H107.511C107.552 36.7845 107.572 37.8184 107.572 38.8579C107.572 72.1593 86.6774 99.9098 51.7438 99.9098C37.5418 99.9098 27.5839 95.8288 16.6471 83.4228L13.5459 97.1346H0.486725V35.7565H50.1115Z" fill="white"/>
<path fill-rule="evenodd" clip-rule="evenodd" d="M8.86182 25.4809H15.5706C18.2271 25.4809 20.0738 24.5346 20.0738 21.8782C20.0738 19.0413 18.0925 18.096 15.5706 18.096H8.86182V25.4809ZM8.86182 12.6923H15.3453C16.7863 12.6923 18.7676 11.9277 18.7676 9.63123C18.7676 7.28986 17.1013 6.52401 15.3453 6.52401H8.86182V12.6923ZM0.486649 0.0395049H15.5259C21.0641 -0.0502839 27.1426 1.39074 27.1426 8.09954C27.1426 10.9814 25.4315 13.3235 22.9106 14.5839C26.3319 15.5742 28.4488 18.5465 28.4488 22.1932C28.4488 29.8485 22.8199 32.1897 15.9307 32.1897H0.486649V0.0395049Z" fill="white"/>
<path fill-rule="evenodd" clip-rule="evenodd" d="M59.3341 18.9066C59.3341 28.2271 55.0563 32.8649 45.331 32.8649C35.6047 32.8649 31.3269 28.2271 31.3269 18.9066V0.0395508H39.7021V19.4022C39.7021 23.5445 41.2327 25.6603 45.331 25.6603C49.4283 25.6603 50.9589 23.5445 50.9589 19.4022V0.0395508H59.3341V18.9066Z" fill="white"/>
<path fill-rule="evenodd" clip-rule="evenodd" d="M79.8189 20.2119V32.1897H71.4437V20.2119L59.7372 0.0395508H69.2379L75.6317 13.0984L82.0256 0.0395508H91.5264L79.8189 20.2119Z" fill="white"/>
</g>
<defs>
<clipPath id="clip0_630_86588">
<rect width="107.218" height="100" fill="white" transform="translate(0.390839)"/>
</clipPath>
</defs>
</svg>
