<svg width="16" height="16" viewBox="0 0 16 16" fill="none" xmlns="http://www.w3.org/2000/svg">
<path fill-rule="evenodd" clip-rule="evenodd" d="M16 12.8571H0V11.7143H16V12.8571Z" fill="#111111"/>
<path d="M11.1429 14C12.0896 14 12.8572 13.2325 12.8572 12.2857C12.8572 11.3389 12.0896 10.5714 11.1429 10.5714C10.1961 10.5714 9.42859 11.3389 9.42859 12.2857C9.42859 13.2325 10.1961 14 11.1429 14Z" fill="white" stroke="#111111"/>
<path fill-rule="evenodd" clip-rule="evenodd" d="M16 4.85714H0V3.71428H16V4.85714Z" fill="#111111"/>
<path d="M11.1429 6C12.0896 6 12.8572 5.23249 12.8572 4.28571C12.8572 3.33894 12.0896 2.57143 11.1429 2.57143C10.1961 2.57143 9.42859 3.33894 9.42859 4.28571C9.42859 5.23249 10.1961 6 11.1429 6Z" fill="white" stroke="#111111"/>
<path fill-rule="evenodd" clip-rule="evenodd" d="M0 8.85714H16V7.71428H0V8.85714Z" fill="#111111"/>
<path d="M4.85713 10C3.91035 10 3.14284 9.23249 3.14284 8.28571C3.14284 7.33894 3.91035 6.57143 4.85713 6.57143C5.8039 6.57143 6.57141 7.33894 6.57141 8.28571C6.57141 9.23249 5.8039 10 4.85713 10Z" fill="white" stroke="#111111"/>
</svg>
