<svg width="18" height="20" viewBox="0 0 18 20" fill="none" xmlns="http://www.w3.org/2000/svg">
<g clip-path="url(#clip0_1116_10742)">
<path d="M9.36311 20C6.63108 20 4.29904 18.9728 2.62137 17.0311C1.05632 15.2194 0.194183 12.7223 0.194183 10C0.194183 7.27767 1.05632 4.78058 2.62137 2.96893C4.29904 1.02718 6.63108 0 9.36311 0C11.6311 0 13.2039 0.654369 14.7825 2.3068L15.1456 0.667961C15.1606 0.603416 15.1969 0.545825 15.2487 0.504571C15.3006 0.463316 15.3648 0.44083 15.4311 0.440777H17.5146C17.5918 0.440777 17.6659 0.471463 17.7205 0.526085C17.7751 0.580708 17.8058 0.654791 17.8058 0.732039V10.4854C17.8058 10.5627 17.7751 10.6368 17.7205 10.6914C17.6659 10.746 17.5918 10.7767 17.5146 10.7767H9.62331C9.54606 10.7767 9.47198 10.746 9.41736 10.6914C9.36273 10.6368 9.33205 10.5627 9.33205 10.4854V8.02718C9.33205 7.94994 9.36273 7.87585 9.41736 7.82123C9.47198 7.76661 9.54606 7.73592 9.62331 7.73592H14.2544C14.099 4.86214 12.3786 3.22913 9.48933 3.22913H9.36894C5.42137 3.22913 4.02137 6.87573 4.02137 9.99806C4.02137 13.1204 5.42137 16.767 9.36311 16.767C12.3534 16.767 13.6486 14.9184 13.8505 13.3359C13.8599 13.2657 13.8943 13.2013 13.9475 13.1546C14.0007 13.1078 14.069 13.0819 14.1398 13.0816H17.3068C17.348 13.0815 17.3888 13.0903 17.4264 13.1071C17.4639 13.124 17.4975 13.1487 17.5249 13.1796C17.5522 13.2104 17.5727 13.2467 17.585 13.286C17.5973 13.3254 17.6011 13.3669 17.5961 13.4078C17.1243 17.4136 13.8932 20 9.36311 20ZM9.36311 0.582524C4.3068 0.582524 0.776708 4.45437 0.776708 10C0.776708 15.5456 4.3068 19.4175 9.36311 19.4175C13.5185 19.4175 16.4019 17.2233 16.9728 13.666H14.3903C13.9262 16.2097 11.5631 17.3553 9.36311 17.3553C7.43884 17.3553 5.86797 16.5534 4.81748 15.0252C3.92816 13.7379 3.43884 11.9515 3.43884 9.99612C3.43884 8.04078 3.92816 6.25437 4.81748 4.96699C5.86603 3.4466 7.43884 2.63689 9.36311 2.63689C12.734 2.58252 14.8 4.59223 14.8466 8.00971C14.849 8.04876 14.8434 8.08788 14.8303 8.12474C14.8173 8.16161 14.7969 8.19546 14.7704 8.22427C14.744 8.25308 14.712 8.27627 14.6763 8.29245C14.6407 8.30863 14.6022 8.31747 14.5631 8.31845H9.91457V10.2019H17.2233V1.0233H15.6699L15.2291 2.9767C15.217 3.02898 15.1909 3.07699 15.1536 3.11563C15.1163 3.15426 15.0693 3.18208 15.0175 3.19612C14.9653 3.20956 14.9103 3.20814 14.8588 3.19202C14.8074 3.17589 14.7614 3.1457 14.7262 3.10485C13.1049 1.26602 11.6505 0.582524 9.36311 0.582524Z" fill="#C4C4C4"/>
</g>
<defs>
<clipPath id="clip0_1116_10742">
<rect width="17.6116" height="20" fill="white" transform="translate(0.194183)"/>
</clipPath>
</defs>
</svg>
