<svg width="320" height="34" viewBox="0 0 320 34" fill="none" xmlns="http://www.w3.org/2000/svg">
<g clip-path="url(#clip0_712_42542)">
<g clip-path="url(#clip1_712_42542)">
<path d="M30.2784 32.7107H26.5873L25.729 28.9586C22.6381 32.3595 19.8201 33.4755 15.8065 33.4755C5.92867 33.4755 0.0198364 25.8703 0.0198364 16.7402C0.0198364 7.61005 5.90883 0 15.8065 0C23.0053 0 29.053 3.71362 29.9312 10.9196H24.2803C23.7445 6.73455 19.9392 4.56507 15.8065 4.56507C8.74666 4.56507 5.78976 10.6069 5.78976 16.7402C5.78976 22.8734 8.7665 28.9105 15.8065 28.9105C21.7153 29.0019 24.9451 25.5432 25.0394 20.1411H16.2481V15.8743H30.2784V32.7107Z" fill="#111111"/>
<path d="M203.446 0.962119H199.754L198.876 4.71904C195.785 1.31809 192.967 0.197266 188.954 0.197266C179.076 0.197266 173.167 7.80731 173.167 16.9374C173.167 26.0676 179.076 33.6728 188.954 33.6728C196.153 33.6728 202.2 29.9592 203.073 22.7532H197.442C196.892 26.9623 193.106 29.1077 188.954 29.1077C181.889 29.1077 178.937 23.0659 178.937 16.9374C178.937 10.809 181.889 4.76233 188.954 4.76233C194.858 4.67575 198.092 8.12961 198.182 13.5365H189.415V17.7985H203.446V0.962119Z" fill="#111111"/>
<path d="M45.1721 0.755127H51.3141L64.0099 32.7106H57.8233L54.7274 24.2491H41.5702L38.4744 32.7106H32.5209L45.1721 0.755127ZM43.138 19.9967H53.2043L48.2629 6.25341H48.124L43.138 19.9967Z" fill="#111111"/>
<path d="M66.3268 0.755127H72.4242L87.4766 24.3261H87.5659V0.755127H93.063V32.7106H86.9656L71.9628 9.21662H71.8239V32.7106H66.3268V0.755127Z" fill="#111111"/>
<path d="M97.7612 0.755127H103.854L118.906 24.3261H119V0.755127H124.497V32.7106H118.4L103.392 9.21662H103.258V32.7106H97.7612V0.755127Z" fill="#111111"/>
<path d="M129.235 0.755127H135.005V32.7106H129.235V0.755127Z" fill="#111111"/>
<path d="M143.469 0.644531H159.211C166.415 0.644531 170.126 3.86749 170.126 9.30324C170.126 15.4365 165.74 16.9999 164.668 17.3607V17.4521C166.653 17.7214 169.56 19.1549 169.56 24.2107C169.56 27.9291 170.116 31.33 171.361 32.6289H165.17C164.291 31.2387 164.291 29.4925 164.291 27.9291C164.291 22.0652 163.046 19.4676 157.738 19.4676H149.264V32.6289H143.469V0.644531ZM149.264 15.196H158.69C162.337 15.196 164.321 13.4498 164.321 10.0922C164.321 6.01774 161.597 5.2096 158.596 5.2096H149.264V15.196Z" fill="#111111"/>
<path d="M238.591 0.707031H262.326V5.54148H244.366V13.9116H260.986V18.4766H244.366V27.8329H262.648V32.6721H238.591V0.707031Z" fill="#111111"/>
<path d="M208.437 0.644531H222.983C232.409 0.644531 234.2 6.5517 234.2 10.5395C234.2 14.5273 232.399 20.3864 222.983 20.3431H214.207V32.6096H208.437V0.644531ZM214.207 15.778H222.641C225.23 15.778 228.416 14.5225 228.416 10.4866C228.416 6.28232 225.781 5.19517 222.735 5.19517H214.207V15.778Z" fill="#111111"/>
<path d="M278.782 0.764893H284.919L297.605 32.7107H291.433L288.337 24.2492H275.18L272.084 32.7107H266.131L278.782 0.764893ZM276.748 20.0065H286.814L281.873 6.25355H281.729L276.748 20.0065Z" fill="#111111"/>
<path d="M292.976 0.764893H319.668V5.57529H309.184V32.7107H303.415V5.59934H292.996L292.976 0.764893Z" fill="#111111"/>
</g>
</g>
<defs>
<clipPath id="clip0_712_42542">
<rect width="320" height="33.6728" fill="white"/>
</clipPath>
<clipPath id="clip1_712_42542">
<rect width="319.663" height="33.6728" fill="white"/>
</clipPath>
</defs>
</svg>
