<svg width="24" height="24" viewBox="0 0 24 24" fill="none" xmlns="http://www.w3.org/2000/svg">
<path d="M23.6031 0.528932H20.7744C20.6823 0.526855 20.5923 0.552857 20.5195 0.602536C20.4467 0.652215 20.3956 0.72252 20.3749 0.801553L19.8695 2.76816C17.7288 0.785243 15.5854 0 12.4948 0C8.77178 0 5.59383 1.23262 3.30761 3.56272C1.17486 5.7367 0 8.7332 0 12C0 15.2668 1.17486 18.2633 3.30761 20.4373C5.59383 22.7674 8.77178 24 12.4948 24C18.6681 24 23.0792 20.8963 23.7142 16.0917C23.721 16.0426 23.7158 15.9928 23.6991 15.9455C23.6823 15.8983 23.6544 15.8548 23.6171 15.8178C23.5799 15.7808 23.5341 15.7512 23.4829 15.7309C23.4317 15.7106 23.3761 15.7002 23.32 15.7002H19.0042C18.9077 15.7006 18.8146 15.7317 18.7421 15.7878C18.6697 15.8439 18.6227 15.9212 18.6099 16.0054C18.3453 17.9045 16.5698 20.1227 12.4948 20.1227C7.12326 20.1227 5.21544 15.7468 5.21544 12C5.21544 8.2532 7.12326 3.87728 12.5028 3.87728H12.6668C16.6042 3.87728 18.9486 5.83689 19.1603 9.28544H12.8494C12.7441 9.28544 12.6432 9.32226 12.5687 9.38781C12.4943 9.45335 12.4525 9.54225 12.4525 9.63495V12.5825C12.4525 12.6752 12.4943 12.7641 12.5687 12.8297C12.6432 12.8952 12.7441 12.932 12.8494 12.932H23.6031C23.7084 12.932 23.8093 12.8952 23.8837 12.8297C23.9582 12.7641 24 12.6752 24 12.5825V0.878447C24 0.78575 23.9582 0.696849 23.8837 0.631302C23.8093 0.565756 23.7084 0.528932 23.6031 0.528932Z" fill="#E25B8B"/>
</svg>
