<svg width="33" height="32" viewBox="0 0 33 32" fill="none" xmlns="http://www.w3.org/2000/svg">
<g clip-path="url(#clip0_726_43054)">
<path d="M16.002 31.1026C15.9254 31.1027 15.8502 31.0828 15.7838 31.0447C15.7174 31.0066 15.6622 30.9517 15.6236 30.8856C13.4708 27.214 8.76931 22.9881 5.95954 20.4632L5.8041 20.3253C3.49 18.2461 1.63637 15.6332 0.712495 13.1581C-0.522278 9.85012 -0.14686 6.74158 1.79769 4.17263C3.94461 1.33681 7.26764 0.254685 10.6875 1.27229C13.1717 2.01131 15.1514 3.69755 16.002 5.67118C16.8525 3.69755 18.8323 2.01131 21.3165 1.27229C24.7363 0.254685 28.0623 1.33681 30.2063 4.17263C32.1508 6.74158 32.5262 9.85012 31.2914 13.1581C30.3705 15.6332 28.5139 18.2461 26.1998 20.3253L26.0473 20.4632C23.2376 22.9881 18.536 27.2081 16.3833 30.8885C16.3437 30.9541 16.2877 31.0084 16.2209 31.0459C16.154 31.0834 16.0786 31.103 16.002 31.1026V31.1026ZM8.21205 1.7767C7.09585 1.7778 5.9959 2.04429 5.003 2.55419C4.0101 3.0641 3.15271 3.80278 2.50159 4.70929C0.721293 7.05536 0.395736 9.7944 1.53665 12.8502C2.41654 15.1962 4.17631 17.6831 6.39069 19.6714L6.54613 19.8092C9.24152 22.2315 13.6527 26.1964 16.002 29.8269C18.3483 26.1964 22.7654 22.2315 25.4578 19.8092L25.6133 19.6714C27.8218 17.6831 29.5933 15.1992 30.4673 12.8502C31.6082 9.7944 31.2826 7.05536 29.5053 4.70929C28.6273 3.49265 27.3857 2.58608 25.9594 2.12019C24.5331 1.6543 22.9957 1.65314 21.5687 2.11688C18.7531 2.94974 16.5974 5.20783 16.4419 7.47179C16.4419 7.58846 16.3956 7.70034 16.3131 7.78284C16.2306 7.86533 16.1187 7.91168 16.002 7.91168C15.8853 7.91168 15.7734 7.86533 15.6909 7.78284C15.6084 7.70034 15.562 7.58846 15.562 7.47179C15.4066 5.20783 13.2509 2.94974 10.4352 2.11688C9.71454 1.89652 8.96567 1.78193 8.21205 1.7767V1.7767Z" fill="#E25B8B"/>
</g>
<defs>
<clipPath id="clip0_726_43054">
<rect width="32.0039" height="32" fill="white"/>
</clipPath>
</defs>
</svg>
