<svg width="33" height="32" viewBox="0 0 33 32" fill="none" xmlns="http://www.w3.org/2000/svg">
<g clip-path="url(#clip0_727_43384)">
<path d="M30.1909 4.19636C28.026 1.33729 24.6755 0.244793 21.2145 1.27046C18.8345 1.97942 16.9108 3.55423 15.9838 5.41089C15.0627 3.55423 13.1418 1.97942 10.7532 1.27046C7.30383 0.244793 3.9533 1.33729 1.78839 4.19636C-0.144055 6.78232 -0.524731 9.89999 0.716099 13.2385C1.64018 15.7111 3.48835 18.3261 5.81309 20.3949L5.96711 20.5344C8.71902 23.0303 13.3685 27.2056 15.5014 30.8201C15.5527 30.9075 15.626 30.9799 15.7139 31.0303C15.8018 31.0806 15.9014 31.1071 16.0027 31.1071C16.104 31.1071 16.2036 31.0806 16.2915 31.0303C16.3795 30.9799 16.4527 30.9075 16.504 30.8201C18.6253 27.1997 23.2719 23.0244 26.05 20.5286L26.204 20.3891C28.5113 18.3261 30.3653 15.7111 31.2893 13.2385C32.5302 9.89999 32.1495 6.78232 30.1909 4.19636Z" fill="#E25B8B"/>
</g>
<defs>
<clipPath id="clip0_727_43384">
<rect width="32.0039" height="32" fill="white"/>
</clipPath>
</defs>
</svg>
