<svg width="24" height="18" viewBox="0 0 24 18" fill="none" xmlns="http://www.w3.org/2000/svg">
<path fill-rule="evenodd" clip-rule="evenodd" d="M17.3693 14.5409C20.136 13.0778 22.2914 10.8834 23.325 9.745C23.325 9.745 23.326 9.745 23.326 9.746C23.3322 9.73844 23.3374 9.73277 23.343 9.72671C23.3456 9.72396 23.3482 9.72113 23.351 9.718C23.356 9.712 23.363 9.704 23.369 9.698V9.697C23.5216 9.52802 23.6489 9.38366 23.7481 9.27101C23.898 9.10099 23.9842 9.0032 23.998 9.002C23.9855 8.99973 23.9084 8.91191 23.7739 8.75879C23.6713 8.6419 23.5352 8.48697 23.369 8.303V8.302C23.363 8.296 23.355 8.288 23.35 8.282C23.341 8.272 23.335 8.265 23.326 8.254C23.326 8.25443 23.3258 8.25468 23.3256 8.25482C23.3253 8.255 23.325 8.255 23.325 8.255C21.688 6.452 17.237 2 12 2C9.98021 2 8.07733 2.66222 6.40772 3.57929L7.14378 4.31536C8.75694 3.46802 10.3858 3 12 3C14.603 3 17.244 4.217 19.796 6.279C20.713 7.02 21.543 7.809 22.31 8.628C22.433 8.759 22.542 8.878 22.652 9C22.542 9.122 22.433 9.241 22.31 9.372C21.543 10.191 20.713 10.98 19.796 11.721C18.7525 12.5641 17.6941 13.266 16.6296 13.8011L17.3693 14.5409ZM14.7413 11.9129C15.5162 11.1834 16 10.1481 16 9C16 6.791 14.209 5 12 5C10.8519 5 9.81665 5.48383 9.08713 6.2587L9.79456 6.96614C10.3427 6.37206 11.1279 6 12 6C13.657 6 15 7.343 15 9C15 9.87215 14.6279 10.6573 14.0339 11.2054L14.7413 11.9129ZM12 12L12.8986 12.8986C12.6098 12.965 12.309 13 12 13C9.791 13 8 11.209 8 9C8 8.69102 8.03504 8.39022 8.10136 8.10136L9 9C9 10.657 10.343 12 12 12ZM5.38827 5.38827C4.99171 5.66426 4.5968 5.96162 4.204 6.279C3.287 7.02 2.457 7.809 1.69 8.628C1.567 8.759 1.458 8.878 1.348 9C1.458 9.122 1.567 9.241 1.69 9.372C2.457 10.191 3.287 10.98 4.204 11.721C6.756 13.783 9.397 15 12 15C12.8669 15 13.7381 14.865 14.6088 14.6088L15.4016 15.4016C14.3233 15.7733 13.1816 16 12 16C6.763 16 2.312 11.548 0.675 9.745C0.675 9.745 0.674 9.745 0.674 9.746C0.667687 9.73828 0.66285 9.73303 0.657419 9.72713C0.655107 9.72462 0.652687 9.72199 0.65 9.719C0.645 9.712 0.637 9.704 0.631 9.698V9.697C0.464005 9.51232 0.327631 9.35707 0.224942 9.24017C0.100548 9.09857 0.0255814 9.01323 0.00548641 8.99999C0.0251408 8.98697 0.097287 8.90479 0.216832 8.76863C0.32041 8.65066 0.45957 8.49216 0.631 8.303V8.302C0.637 8.296 0.645 8.288 0.65 8.281L0.674 8.254C0.674 8.255 0.675 8.255 0.675 8.255C1.44914 7.40236 2.85258 5.95732 4.67085 4.67085L5.38827 5.38827ZM0 9C0 8.99756 0.00183964 8.99759 0.00548641 8.99999C0.00183965 9.00241 0 9.00244 0 9Z" fill="#111111"/>
<line x1="4.35355" y1="1.64645" x2="19.2028" y2="16.4957" stroke="#111111"/>
</svg>
