<svg width="50" height="50" viewBox="0 0 50 50" fill="none" xmlns="http://www.w3.org/2000/svg">
<path d="M34.1968 25.7596L33.177 26.7793L33.9929 28.1119C32.1572 27.9963 31.0491 28.4518 29.9137 29.5769C27.1637 32.327 27.7042 36.1579 30.325 38.7788C32.9459 41.3996 36.7837 41.9401 39.5303 39.1901C41.5359 37.1845 42.1511 34.4311 40.3257 32.1196L38.7586 33.6901C39.8124 35.0498 39.3739 36.7222 38.2182 37.8814C36.2534 39.8462 33.6937 38.9352 31.9329 37.1743C30.1721 35.4135 29.2611 32.8538 31.2258 30.8857C32.8473 29.2166 34.7339 29.305 36.3248 30.8347L33.9011 33.2788L35.1214 34.4991L39.0306 30.5933L34.1968 25.7596Z" fill="#111111"/>
<path d="M36.5694 49.9964C36.4345 49.9952 36.3053 49.9416 36.2091 49.8469L0.149568 13.7839C0.0539177 13.6884 0.00011901 13.5588 0 13.4236C0.000853782 13.2886 0.0545411 13.1592 0.149568 13.0633L13.0668 0.146009C13.1645 0.0544772 13.2933 0.00354004 13.4271 0.00354004C13.561 0.00354004 13.6898 0.0544772 13.7875 0.146009L49.8538 36.2056C49.9007 36.253 49.9378 36.3093 49.9628 36.3711C49.9879 36.433 50.0006 36.4991 50 36.5659C50.0004 36.7005 49.9479 36.8299 49.8538 36.9262L36.9366 49.8435C36.8889 49.8924 36.8317 49.9312 36.7686 49.9575C36.7055 49.9838 36.6378 49.997 36.5694 49.9964ZM1.23054 13.4236L36.583 48.7761L48.783 36.5761L13.4305 1.22358L1.23054 13.4236Z" fill="#111111"/>
<path d="M11.2176 13.6208C10.6607 13.621 10.121 13.428 9.6904 13.0748C9.25981 12.7216 8.96505 12.23 8.85635 11.6838C8.74765 11.1376 8.83174 10.5706 9.09429 10.0795C9.35684 9.58832 9.7816 9.20343 10.2962 8.9904C10.8107 8.77738 11.3832 8.74939 11.9161 8.91123C12.449 9.07306 12.9093 9.4147 13.2185 9.8779C13.5276 10.3411 13.6666 10.8972 13.6117 11.4514C13.5568 12.0056 13.3114 12.5236 12.9173 12.9171C12.6941 13.1403 12.4291 13.3172 12.1375 13.438C11.8458 13.5587 11.5333 13.6208 11.2176 13.6208ZM11.2176 9.82036C11.0351 9.82017 10.8543 9.85612 10.6857 9.92613C10.5171 9.99614 10.364 10.0988 10.2353 10.2283C10.106 10.3571 10.0034 10.5102 9.93337 10.6788C9.86337 10.8474 9.82733 11.0281 9.82733 11.2107C9.82733 11.3932 9.86337 11.5739 9.93337 11.7425C10.0034 11.9111 10.106 12.0642 10.2353 12.1931C10.3975 12.3533 10.5967 12.4712 10.8152 12.5363C11.0338 12.6014 11.265 12.6117 11.4885 12.5664C11.712 12.5211 11.9209 12.4215 12.0968 12.2764C12.2727 12.1313 12.4103 11.9452 12.4973 11.7344C12.5843 11.5236 12.6182 11.2947 12.5958 11.0677C12.5735 10.8408 12.4957 10.6228 12.3693 10.433C12.2428 10.2433 12.0717 10.0875 11.8708 9.97945C11.67 9.87142 11.4457 9.81445 11.2176 9.81356V9.82036Z" fill="#111111"/>
</svg>
