<svg width="340" height="80" viewBox="0 0 340 80" fill="none" xmlns="http://www.w3.org/2000/svg">
<g style="mix-blend-mode:luminosity">
<g style="mix-blend-mode:luminosity">
<path fill-rule="evenodd" clip-rule="evenodd" d="M21.1536 24.5756C17.3819 20.8166 13.658 17.1042 9.93056 13.3902C5.12393 18.95 4.71151 29.412 9.91928 35.7723C13.6936 32.0107 17.3914 28.3252 21.1536 24.5756ZM39.9208 66.1105C40.0996 66.2887 40.3184 66.4255 40.5173 66.5795C45.6252 60.5904 45.4454 49.9103 40.5034 44.2519C36.7925 47.9503 33.0842 51.6462 29.243 55.4745C32.8558 59.0752 36.3861 62.5954 39.9208 66.1105ZM25.2248 51.3788C29.0321 47.5843 32.7933 43.8365 36.6266 40.0151C32.8263 36.2266 29.0399 32.4537 25.1979 28.6237C21.4106 32.3975 17.6476 36.1479 13.796 39.9874C17.6345 43.814 21.3993 47.5661 25.2248 51.3788ZM38.7469 11.1005C31.6576 4.03407 20.5102 4.04964 13.987 9.2746C22.8223 18.0804 31.6507 26.8792 40.5581 35.7568C45.6807 29.5557 45.9577 18.2889 38.7469 11.1005ZM9.90712 44.2666C5.34013 49.4543 3.98392 60.2832 10.7762 67.9338C18.719 76.8797 30.7729 75.4752 36.42 70.6908C27.5282 61.8279 18.719 53.049 9.90712 44.2666ZM40.6953 74.5441C32.5042 81.1381 19.9615 82.3322 10.1719 74.9145C5.64575 71.486 2.64769 66.9256 1.32621 61.3788C-0.544 53.5292 1.14561 46.3936 5.94443 40.0143C-2.25793 29.419 -1.03456 14.2997 9.63623 5.53631C19.2304 -2.3418 32.9366 -1.5777 41.7563 6.33848C50.0229 13.7597 53.4577 28.0223 44.5268 39.9632C53.1546 51.204 50.7548 66.4454 40.6953 74.5441Z" fill="#111111"/>
</g>
</g>
<path fill-rule="evenodd" clip-rule="evenodd" d="M86.3409 0C90.0417 0 92.966 0.927889 95.1138 2.7837C97.2616 4.6395 98.3355 7.29062 98.3355 10.7371V27.141C98.3355 29.7259 97.7077 32.1119 96.4521 34.2991C95.1964 36.4863 93.3791 37.7787 90.9999 38.1764L99.9216 78.2418H86.9356L78.807 37.1822H78.7079V78.2418H66.515V0H86.3409ZM77.9436 31.6484H80.7171C82.0379 31.6484 83.078 31.2008 83.8374 30.3058C84.5968 29.4108 84.9765 28.234 84.9765 26.7754V13.8471C84.9765 11.0626 83.6558 9.67033 81.0143 9.67033H77.9436V31.6484ZM102.559 78.2418V0H130.691V10.3394H115.173V30.1236H130.691V40.0653H115.173V68.3H130.691V78.2418H102.559ZM135.086 78.2418V0H163.218V10.3394H147.701V30.1236H163.218V40.0653H147.701V78.2418H135.086ZM195.746 78.2418H167.614V0H180.466V68.0017H195.746V78.2418ZM207.27 0H225.493L233.548 78.2418H220.56L220.057 68.6977H211.096L210.391 78.2418H197.504L207.27 0ZM213.328 59.7802H219.482L217.174 11.4286H217.078L213.328 59.7802ZM248.75 65.7179C248.75 67.1161 249.021 68.2314 249.561 69.0637C250.102 69.896 251.081 70.3121 252.5 70.3121C253.851 70.3121 254.813 69.8793 255.388 69.0137C255.962 68.1481 256.249 67.0495 256.249 65.7179V0H268.713V65.1186C268.713 67.6488 268.307 69.8294 267.497 71.6604C266.686 73.4915 265.572 75.0395 264.153 76.3046C262.734 77.5697 261.045 78.5019 259.086 79.1011C257.127 79.7004 254.999 80 252.702 80C247.501 80 243.447 78.8348 240.543 76.5044C237.638 74.1739 236.185 70.6118 236.185 65.8177V0H248.75V65.7179ZM293.556 0H305.636V78.2418H294.454L286.068 38.8723H285.868V78.2418H273.988V0H284.77L293.356 41.0595H293.556V0ZM330.304 78.2418H317.692V10.5383H309.152V0H339.042V10.5383H330.304V78.2418Z" fill="#111111"/>
</svg>
