<svg width="20" height="21" viewBox="0 0 20 21" fill="none" xmlns="http://www.w3.org/2000/svg">
<g clip-path="url(#clip0_504_46048)">
<path d="M10 20.5C9.95642 20.5 9.91337 20.4903 9.87405 20.4715C9.83473 20.4526 9.80014 20.4252 9.77282 20.3913C9.50098 20.0515 3.12622 12.0379 3.12622 7.37379C3.12622 5.55075 3.85042 3.80237 5.13951 2.51329C6.42859 1.2242 8.17697 0.5 10 0.5C11.823 0.5 13.5714 1.2242 14.8605 2.51329C16.1496 3.80237 16.8738 5.55075 16.8738 7.37379C16.8738 12.034 10.499 20.0515 10.2272 20.3835C10.2007 20.4189 10.1664 20.4478 10.127 20.468C10.0877 20.4882 10.0442 20.4991 10 20.5ZM10 1.08252C8.33193 1.08407 6.73262 1.74739 5.55312 2.9269C4.37361 4.1064 3.71029 5.70571 3.70875 7.37379C3.70875 11.3544 8.84661 18.2476 10 19.735C11.1534 18.2398 16.2913 11.3544 16.2913 7.37379C16.2897 5.70571 15.6264 4.1064 14.4469 2.9269C13.2674 1.74739 11.6681 1.08407 10 1.08252Z" fill="#636363"/>
<path d="M10 10.0573C9.35743 10.0573 8.72928 9.8667 8.19501 9.50966C7.66075 9.15262 7.24438 8.64515 6.99856 8.05144C6.75274 7.45773 6.68853 6.80446 6.81403 6.17425C6.93953 5.54404 7.24912 4.96521 7.70363 4.51097C8.15814 4.05673 8.73716 3.74749 9.36744 3.62237C9.99773 3.49724 10.651 3.56185 11.2445 3.80802C11.8381 4.05419 12.3453 4.47087 12.702 5.00534C13.0587 5.53982 13.2489 6.16808 13.2486 6.81067C13.247 7.67158 12.9042 8.49677 12.2953 9.10535C11.6863 9.71392 10.8609 10.0562 10 10.0573ZM10 4.14465C9.47272 4.14465 8.95727 4.30101 8.51885 4.59395C8.08042 4.8869 7.73871 5.30327 7.53693 5.79043C7.33514 6.27758 7.28235 6.81362 7.38522 7.33078C7.48809 7.84794 7.742 8.32298 8.11485 8.69583C8.4877 9.06868 8.96274 9.32259 9.4799 9.42546C9.99705 9.52833 10.5331 9.47553 11.0203 9.27375C11.5074 9.07196 11.9238 8.73025 12.2167 8.29183C12.5097 7.8534 12.666 7.33796 12.666 6.81067C12.665 6.10391 12.3838 5.42639 11.884 4.92664C11.3843 4.42689 10.7068 4.14568 10 4.14465Z" fill="#636363"/>
</g>
<defs>
<clipPath id="clip0_504_46048">
<rect width="20" height="20" fill="white" transform="translate(0 0.5)"/>
</clipPath>
</defs>
</svg>
