<svg width="33" height="32" viewBox="0 0 33 32" fill="none" xmlns="http://www.w3.org/2000/svg">
<g clip-path="url(#clip0_946_35111)">
<path d="M26.9323 20.56V14.24C26.9317 12.0411 26.2347 9.89894 24.9412 8.12079C23.6477 6.34263 21.8242 5.01991 19.7323 4.3424V0H13.3323V4.3424C11.2404 5.01991 9.41686 6.34263 8.12334 8.12079C6.82983 9.89894 6.1328 12.0411 6.13227 14.24V20.56L2.45227 22.4V27.84H11.7803C11.9433 28.9842 12.5137 30.0311 13.3866 30.7885C14.2596 31.5459 15.3765 31.9629 16.5323 31.9629C17.688 31.9629 18.8049 31.5459 19.6779 30.7885C20.5509 30.0311 21.1212 28.9842 21.2843 27.84H30.6123V22.4L26.9323 20.56ZM14.2923 0.96H18.7723V4.0832C18.0364 3.92248 17.2855 3.84095 16.5323 3.84C15.7791 3.84095 15.0281 3.92248 14.2923 4.0832V0.96ZM16.5323 31.04C15.6255 31.0391 14.7482 30.7173 14.056 30.1316C13.3637 29.5459 12.901 28.7341 12.7499 27.84H20.3147C20.1635 28.7341 19.7009 29.5459 19.0086 30.1316C18.3163 30.7173 17.4391 31.0391 16.5323 31.04ZM29.6523 26.88H3.41227V22.992L6.56108 21.4176C6.72048 21.338 6.85459 21.2157 6.9484 21.0642C7.04222 20.9127 7.09203 20.7382 7.09227 20.56V14.24C7.09434 12.2981 7.6944 10.404 8.81086 8.81523C9.92733 7.22642 11.506 6.01999 13.3323 5.36C13.6466 5.24616 13.9671 5.15001 14.2923 5.072C15.7636 4.70935 17.301 4.70935 18.7723 5.072C19.0974 5.15001 19.4179 5.24616 19.7323 5.36C21.5585 6.01999 23.1372 7.22642 24.2537 8.81523C25.3701 10.404 25.9702 12.2981 25.9723 14.24V20.56C25.9725 20.7382 26.0223 20.9127 26.1161 21.0642C26.21 21.2157 26.3441 21.338 26.5035 21.4176L29.6523 22.992V26.88Z" fill="black"/>
</g>
<defs>
<clipPath id="clip0_946_35111">
<rect width="28.16" height="32" fill="white" transform="translate(2.45227)"/>
</clipPath>
</defs>
</svg>
