<svg width="50" height="50" viewBox="0 0 50 50" fill="none" xmlns="http://www.w3.org/2000/svg">
<path d="M14.4497 40.747C14.3613 40.7464 14.2739 40.728 14.1927 40.6929L3.00861 36.0813C2.88478 36.0311 2.77874 35.9451 2.70406 35.8342C2.62938 35.7234 2.58945 35.5928 2.58938 35.4592V26.8942C2.58845 26.7827 2.61511 26.6727 2.66699 26.574C2.71887 26.4752 2.79435 26.3909 2.88672 26.3284C2.97909 26.2659 3.08548 26.2273 3.19641 26.2159C3.30734 26.2045 3.41937 26.2207 3.52252 26.2631L14.7112 30.8747C14.8345 30.9264 14.9397 31.0135 15.0136 31.1251C15.0874 31.2366 15.1265 31.3675 15.1259 31.5013V40.0663C15.1247 40.2453 15.0531 40.4166 14.9265 40.5431C14.8 40.6697 14.6287 40.7413 14.4497 40.7425V40.747ZM3.94175 35.0039L13.7735 39.061V31.9521L3.94175 27.8949V35.0039Z" fill="#111111"/>
<path d="M25.2461 48.2165C25.1562 48.2164 25.0673 48.198 24.9847 48.1624L0.416575 37.9295C0.293226 37.879 0.1878 37.7928 0.113883 37.682C0.0399664 37.5711 0.000945079 37.4406 0.00184749 37.3074V12.7302C-0.000456572 12.6164 0.0260181 12.5038 0.0788166 12.403C0.131615 12.3021 0.209028 12.2162 0.303878 12.1532C0.396487 12.0911 0.503186 12.0532 0.614222 12.043C0.725258 12.0327 0.837089 12.0505 0.939493 12.0946L25.2461 22.2329L49.0524 12.4147C49.1556 12.3732 49.2673 12.3572 49.378 12.3682C49.4887 12.3792 49.595 12.4168 49.688 12.4778C49.781 12.5395 49.8572 12.6233 49.9099 12.7216C49.9626 12.8199 49.9901 12.9297 49.9901 13.0413V37.6184C49.9897 37.7525 49.9497 37.8836 49.8751 37.9951C49.8005 38.1065 49.6947 38.1935 49.5708 38.245L25.5031 48.1624C25.4215 48.196 25.3344 48.2144 25.2461 48.2165ZM1.35422 36.8566L25.2461 46.81L48.6377 37.1631V14.0511L25.5121 23.5898C25.3459 23.6572 25.1599 23.6572 24.9937 23.5898L1.35422 13.7445V36.8566Z" fill="#111111"/>
<path d="M25.2461 23.6394C25.1567 23.6386 25.0681 23.6219 24.9846 23.5898L0.416531 13.3569C0.293199 13.3056 0.187821 13.2189 0.11369 13.1078C0.0395605 12.9967 0 12.8661 0 12.7325C0 12.599 0.0395605 12.4684 0.11369 12.3573C0.187821 12.2461 0.293199 12.1595 0.416531 12.1082L24.9937 1.83916C25.0775 1.80242 25.1681 1.78345 25.2596 1.78345C25.3512 1.78345 25.4417 1.80242 25.5256 1.83916L49.5888 12.4237C49.7108 12.4757 49.8148 12.5624 49.8879 12.673C49.961 12.7836 50 12.9132 50 13.0458C50 13.1784 49.961 13.3081 49.8879 13.4187C49.8148 13.5293 49.7108 13.616 49.5888 13.6679L25.5211 23.5853C25.4338 23.6212 25.3404 23.6395 25.2461 23.6394ZM2.43608 12.7303L25.2461 22.233L47.5873 13.0188L25.2461 3.19605L2.43608 12.7303Z" fill="#111111"/>
<path d="M15.2071 24.0046C15.1148 24.004 15.0235 23.9844 14.939 23.9472C14.8545 23.91 14.7785 23.8559 14.7157 23.7882L12.5745 21.4937L11.0373 22.1112C10.9351 22.1539 10.8239 22.1705 10.7137 22.1595C10.6036 22.1485 10.4979 22.1102 10.4062 22.0481C10.3146 21.9853 10.2397 21.9012 10.1879 21.8031C10.1361 21.7049 10.1089 21.5956 10.1086 21.4846V16.9001C10.1091 16.7677 10.1482 16.6384 10.2211 16.5279C10.2939 16.4174 10.3974 16.3306 10.5189 16.278L34.5235 6.04504L35.0554 7.28923L11.461 17.3509V20.4839L12.5023 20.0646C12.6287 20.0144 12.7673 20.0035 12.9 20.0332C13.0327 20.063 13.1533 20.1321 13.2461 20.2314L14.5309 21.6199V18.7934C14.5312 18.6604 14.5707 18.5305 14.6445 18.4198C14.7182 18.3092 14.823 18.2227 14.9456 18.1713L38.9503 7.93837L39.4777 9.18255L15.8833 19.2397V23.3284C15.884 23.464 15.8434 23.5966 15.7669 23.7085C15.6904 23.8204 15.5816 23.9064 15.455 23.955C15.3762 23.9869 15.2921 24.0038 15.2071 24.0046Z" fill="#111111"/>
<path d="M25.246 48.2166C25.0667 48.2166 24.8947 48.1453 24.7679 48.0185C24.6411 47.8917 24.5698 47.7197 24.5698 47.5404V22.9723C24.5698 22.7929 24.6411 22.6209 24.7679 22.4941C24.8947 22.3673 25.0667 22.2961 25.246 22.2961C25.4253 22.2961 25.5973 22.3673 25.7241 22.4941C25.851 22.6209 25.9222 22.7929 25.9222 22.9723V47.5404C25.9222 47.7197 25.851 47.8917 25.7241 48.0185C25.5973 48.1453 25.4253 48.2166 25.246 48.2166Z" fill="#111111"/>
</svg>
