<svg width="50" height="50" viewBox="0 0 50 50" fill="none" xmlns="http://www.w3.org/2000/svg">
<path d="M29.026 27.3926H24.726C24.4771 27.3934 24.2387 27.4928 24.063 27.6691C23.8872 27.8453 23.7886 28.0841 23.7886 28.333V30.8201C23.7901 31.068 23.8895 31.3052 24.0651 31.4802C24.2406 31.6552 24.4782 31.7538 24.726 31.7546H29.026C29.2752 31.7538 29.5139 31.6545 29.6901 31.4783C29.8663 31.3021 29.9656 31.0634 29.9664 30.8142V28.333C29.9656 28.0838 29.8663 27.8451 29.6901 27.6689C29.5139 27.4927 29.2752 27.3934 29.026 27.3926V27.3926ZM29.0792 30.8201C29.0792 30.8342 29.0736 30.8478 29.0636 30.8577C29.0536 30.8677 29.0401 30.8733 29.026 30.8733H24.726C24.7124 30.8726 24.6997 30.8666 24.6903 30.8567C24.6809 30.8468 24.6757 30.8337 24.6758 30.8201V28.333C24.6757 28.3194 24.6809 28.3063 24.6903 28.2964C24.6997 28.2865 24.7124 28.2805 24.726 28.2798H29.026C29.0401 28.2798 29.0536 28.2854 29.0636 28.2954C29.0736 28.3053 29.0792 28.3189 29.0792 28.333V30.8201Z" fill="#111111"/>
<path d="M47.6661 26.183V10.9055C47.6653 10.5528 47.5248 10.2148 47.2754 9.96535C47.026 9.71595 46.688 9.57549 46.3353 9.57471H16.4663C16.1136 9.57549 15.7756 9.71595 15.5262 9.96535C15.2768 10.2148 15.1363 10.5528 15.1356 10.9055V18.7424H1.33079C0.980626 18.7431 0.644797 18.8816 0.395812 19.1278C0.146826 19.374 0.00465776 19.7083 0 20.0584L0 39.0947C0.000781195 39.4474 0.14124 39.7854 0.390643 40.0348C0.640046 40.2842 0.978085 40.4247 1.33079 40.4255H31.1997C31.5521 40.4247 31.8899 40.2841 32.1388 40.0346C32.3877 39.7851 32.5275 39.4471 32.5275 39.0947V31.2726H37.5786V35.9688C37.5786 37.4474 41.4912 37.8585 43.789 37.8585C46.0868 37.8585 49.9994 37.4593 49.9994 35.9688V27.7119C50.029 26.943 48.9909 26.4669 47.6661 26.183ZM43.8038 33.7301C45.4333 33.7301 47.8524 33.5319 49.127 32.8961V33.8898C48.9732 34.2476 47.0214 34.9071 43.8038 34.9071C40.5862 34.9071 38.6048 34.2417 38.4806 33.9046V32.8961C39.7582 33.529 42.1773 33.7301 43.8038 33.7301ZM38.4806 31.8404V30.8319C39.77 31.4677 42.1891 31.6659 43.8038 31.6659C45.4185 31.6659 47.8524 31.4677 49.127 30.8319V31.8256C48.9732 32.1834 47.0214 32.8429 43.8038 32.8429C40.5862 32.8429 38.6048 32.1775 38.4688 31.8404H38.4806ZM49.1536 29.7702C48.9998 30.1281 47.048 30.7876 43.8304 30.7876C40.6129 30.7876 38.6314 30.1222 38.5072 29.785V28.7677C39.7966 29.4035 42.2157 29.6017 43.8304 29.6017C45.4451 29.6017 47.879 29.4035 49.1536 28.7677V29.7702ZM49.1536 27.7208C48.9525 28.0816 47.0066 28.7233 43.8304 28.7233C40.6543 28.7233 38.7024 28.0816 38.5072 27.7208C38.7083 27.36 40.6513 26.7183 43.8304 26.7183C47.0095 26.7183 48.9347 27.3511 49.1358 27.7119L49.1536 27.7208ZM16.0198 10.9055C16.0198 10.7879 16.0665 10.675 16.1497 10.5918C16.2329 10.5086 16.3457 10.4619 16.4634 10.4619H46.3323C46.45 10.4619 46.5628 10.5086 46.646 10.5918C46.7292 10.675 46.7759 10.7879 46.7759 10.9055V14.0107H16.0198V10.9055ZM16.0198 14.8949H46.7759V17.0893H16.0198V14.8949ZM31.6433 39.0947C31.6433 39.2118 31.597 39.3242 31.5144 39.4073C31.4319 39.4904 31.3198 39.5375 31.2027 39.5383H1.33079C1.21314 39.5383 1.10031 39.4915 1.01712 39.4083C0.933932 39.3251 0.887195 39.2123 0.887195 39.0947V20.0584C0.891033 19.9433 0.939458 19.8343 1.02224 19.7542C1.10501 19.6742 1.21566 19.6295 1.33079 19.6296H31.1997C31.3168 19.6304 31.4289 19.6775 31.5115 19.7606C31.594 19.8437 31.6403 19.956 31.6403 20.0732L31.6433 39.0947ZM37.5816 27.7119V30.3735H32.5305V20.0584C32.5305 19.706 32.3907 19.3679 32.1418 19.1184C31.8928 18.8689 31.5551 18.7284 31.2027 18.7276H16.0198V17.9764H46.7759V26.0263C45.7901 25.8901 44.796 25.8219 43.8008 25.8222C41.4941 25.8222 37.5816 26.2215 37.5816 27.7119V27.7119ZM43.792 36.9713C40.5389 36.9713 38.593 36.3059 38.4688 35.9688V34.9574C39.7582 35.5962 42.1773 35.7943 43.792 35.7943C45.4067 35.7943 47.8405 35.5962 49.1151 34.9574V35.954C48.988 36.3118 47.0361 36.9713 43.8038 36.9713H43.792Z" fill="#111111"/>
</svg>
