<svg width="12" height="12" viewBox="0 0 12 12" fill="none" xmlns="http://www.w3.org/2000/svg">
<path d="M11.8015 0.264466H10.3872C10.3412 0.263428 10.2961 0.276428 10.2597 0.301268C10.2233 0.326107 10.1978 0.36126 10.1874 0.400777L9.93473 1.38408C8.86439 0.392621 7.79272 0 6.24741 0C4.38589 0 2.79691 0.616311 1.6538 1.78136C0.587431 2.86835 0 4.3666 0 6C0 7.6334 0.587431 9.13165 1.6538 10.2186C2.79691 11.3837 4.38589 12 6.24741 12C9.33407 12 11.5396 10.4482 11.8571 8.04583C11.8605 8.02128 11.8579 7.99638 11.8495 7.97277C11.8412 7.94917 11.8272 7.9274 11.8086 7.9089C11.7899 7.8904 11.7671 7.87559 11.7414 7.86545C11.7158 7.85532 11.6881 7.85008 11.66 7.8501H9.5021C9.45385 7.85029 9.40731 7.86584 9.37107 7.8939C9.33483 7.92195 9.31135 7.96061 9.30496 8.00272C9.17266 8.95223 8.2849 10.0614 6.24741 10.0614C3.56163 10.0614 2.60772 7.8734 2.60772 6C2.60772 4.1266 3.56163 1.93864 6.25138 1.93864H6.33341C8.3021 1.93864 9.47431 2.91845 9.58016 4.64272H6.4247C6.37206 4.64272 6.32159 4.66113 6.28437 4.6939C6.24715 4.72668 6.22624 4.77113 6.22624 4.81748V6.29126C6.22624 6.33761 6.24715 6.38206 6.28437 6.41483C6.32159 6.44761 6.37206 6.46602 6.4247 6.46602H11.8015C11.8542 6.46602 11.9047 6.44761 11.9419 6.41483C11.9791 6.38206 12 6.33761 12 6.29126V0.439223C12 0.392875 11.9791 0.348425 11.9419 0.315651C11.9047 0.282878 11.8542 0.264466 11.8015 0.264466V0.264466Z" fill="#E25B8B"/>
</svg>
