<svg width="69" height="16" viewBox="0 0 69 16" fill="none" xmlns="http://www.w3.org/2000/svg">
<g style="mix-blend-mode:luminosity">
<g style="mix-blend-mode:luminosity">
<path fill-rule="evenodd" clip-rule="evenodd" d="M4.2415 4.91513C3.48524 4.16331 2.73855 3.42085 1.99116 2.67804C1.02738 3.79 0.944686 5.88241 1.9889 7.15447C2.74569 6.40214 3.48715 5.66504 4.2415 4.91513ZM8.00455 13.2221C8.04041 13.2577 8.08428 13.2851 8.12415 13.3159C9.14834 12.1181 9.11231 9.98207 8.12136 8.85037C7.37729 9.59007 6.63373 10.3292 5.86354 11.0949C6.58794 11.815 7.29581 12.5191 8.00455 13.2221ZM5.05783 10.2758C5.82123 9.51686 6.57541 8.7673 7.34403 8.00302C6.58202 7.24533 5.8228 6.49075 5.05243 5.72474C4.29304 6.4795 3.53851 7.22958 2.76623 7.99749C3.5359 8.7628 4.29077 9.51323 5.05783 10.2758ZM7.76917 2.2201C6.34769 0.806814 4.1125 0.809929 2.80453 1.85492C4.57611 3.61607 6.3463 5.37584 8.13233 7.15135C9.15949 5.91114 9.21502 3.65778 7.76917 2.2201ZM1.98646 8.85331C1.07073 9.89086 0.798795 12.0566 2.16073 13.5868C3.75334 15.3759 6.17029 15.095 7.3026 14.1382C5.5197 12.3656 3.75334 10.6098 1.98646 8.85331ZM8.15984 14.9088C6.51743 16.2276 4.00247 16.4664 2.03956 14.9829C1.13201 14.2972 0.530865 13.3851 0.265894 12.2758C-0.109105 10.7058 0.229682 9.27872 1.1919 8.00285C-0.452766 5.88379 -0.207468 2.85993 1.93215 1.10726C3.85589 -0.468359 6.60413 -0.315539 8.37258 1.2677C10.0301 2.75194 10.7188 5.60446 8.92811 7.99264C10.6581 10.2408 10.1769 13.2891 8.15984 14.9088Z" fill="#111111"/>
</g>
</g>
<path fill-rule="evenodd" clip-rule="evenodd" d="M17.3122 0C18.0543 0 18.6406 0.185578 19.0713 0.556739C19.502 0.927901 19.7173 1.45812 19.7173 2.14742V5.42821C19.7173 5.94518 19.5914 6.42238 19.3396 6.85982C19.0879 7.29726 18.7235 7.55575 18.2464 7.63528L20.0353 15.6484H17.4315L15.8016 7.43645H15.7817V15.6484H13.3369V0H17.3122ZM15.6285 6.32967H16.1846C16.4494 6.32967 16.658 6.24017 16.8103 6.06116C16.9625 5.88215 17.0387 5.64679 17.0387 5.35508V2.76943C17.0387 2.21252 16.7738 1.93407 16.2442 1.93407H15.6285V6.32967ZM20.5641 15.6484V0H26.2049V2.06789H23.0935V6.02471H26.2049V8.01307H23.0935V13.66H26.2049V15.6484H20.5641ZM27.0863 15.6484V0H32.727V2.06789H29.6156V6.02471H32.727V8.01307H29.6156V15.6484H27.0863ZM39.2492 15.6484H33.6084V0H36.1853V13.6003H39.2492V15.6484ZM41.5599 0H45.2139L46.8289 15.6484H44.2247L44.1238 13.7395H42.3271L42.1858 15.6484H39.6017L41.5599 0ZM42.7746 11.956H44.0086L43.5458 2.28571H43.5266L42.7746 11.956ZM49.8772 13.1436C49.8772 13.4232 49.9314 13.6463 50.0398 13.8127C50.1481 13.9792 50.3445 14.0624 50.629 14.0624C50.8999 14.0624 51.0929 13.9759 51.2081 13.8027C51.3232 13.6296 51.3808 13.4099 51.3808 13.1436V0H53.8799V13.0237C53.8799 13.5298 53.7986 13.9659 53.6361 14.3321C53.4735 14.6983 53.25 15.0079 52.9656 15.2609C52.6811 15.5139 52.3425 15.7004 51.9497 15.8202C51.5569 15.9401 51.1302 16 50.6696 16C49.6266 16 48.8139 15.767 48.2314 15.3009C47.649 14.8348 47.3578 14.1224 47.3578 13.1635V0H49.8772V13.1436ZM58.8612 0H61.2834V15.6484H59.0413L57.3598 7.77447H57.3197V15.6484H54.9375V0H57.0995L58.8211 8.21191H58.8612V0ZM66.2296 15.6484H63.7009V2.10766H61.9885V0H67.9818V2.10766H66.2296V15.6484Z" fill="#111111"/>
</svg>
