<svg width="32" height="32" viewBox="0 0 32 32" fill="none" xmlns="http://www.w3.org/2000/svg">
<g clip-path="url(#clip0_712_42637)">
<path fill-rule="evenodd" clip-rule="evenodd" d="M12.7998 1.44906C18.9923 1.44906 24.0299 6.48694 24.0299 12.6792C24.0299 18.8715 18.9923 23.9094 12.7998 23.9094C6.60722 23.9094 1.56957 18.8715 1.56957 12.6792C1.56957 6.48694 6.60722 1.44906 12.7998 1.44906ZM12.7998 25.3585C19.791 25.3585 25.479 19.6707 25.479 12.6792C25.479 5.68779 19.791 0 12.7998 0C5.80854 0 0.120513 5.68779 0.120513 12.6792C0.120513 19.6707 5.80854 25.3585 12.7998 25.3585Z" fill="#111111"/>
<mask id="mask0_712_42637" style="mask-type:alpha" maskUnits="userSpaceOnUse" x="20" y="20" width="12" height="12">
<path d="M32 20.7094H20.7094V32H32V20.7094Z" fill="white"/>
</mask>
<g mask="url(#mask0_712_42637)">
<path fill-rule="evenodd" clip-rule="evenodd" d="M31.2755 32C31.461 32 31.6462 31.9292 31.7877 31.7877C32.0708 31.5049 32.0708 31.046 31.7877 30.7632L21.9462 20.9217C21.6632 20.6387 21.2048 20.6387 20.9217 20.9217C20.6387 21.2045 20.6387 21.6634 20.9217 21.9462L30.7632 31.7877C30.9048 31.9292 31.09 32 31.2755 32Z" fill="#111111"/>
</g>
</g>
<defs>
<clipPath id="clip0_712_42637">
<rect width="32" height="32" fill="white" transform="matrix(-1 0 0 1 32 0)"/>
</clipPath>
</defs>
</svg>
