<svg width="108" height="100" viewBox="0 0 108 100" fill="none" xmlns="http://www.w3.org/2000/svg">
<g clip-path="url(#clip0_630_86590)">
<path fill-rule="evenodd" clip-rule="evenodd" d="M57.9747 62.9839V47.7674H88.9676C88.6417 28.3864 77.2231 16.0528 56.3437 16.3737C31.3864 16.3737 20.9468 37.9972 20.9468 59.941C20.9468 60.957 20.9769 61.9714 21.0219 62.9839H0.617055C0.576535 61.9753 0.556274 60.9609 0.556274 59.941C0.556274 27.2651 21.4357 0.0357056 56.3437 0.0357056C70.5352 0.0357056 80.4859 4.03993 91.4146 16.2128L94.5136 2.75859H107.563V62.9839H57.9747Z" fill="white"/>
<path fill-rule="evenodd" clip-rule="evenodd" d="M8.8455 88.8912C9.02193 92.5208 11.3103 93.6875 14.7873 93.6875C17.2512 93.6875 19.8035 92.8233 19.8035 90.5324C19.8035 87.8108 15.3146 87.2921 10.7821 86.0386C6.29324 84.7859 1.58496 82.7974 1.58496 77.1368C1.58496 70.396 8.49373 67.7597 14.3907 67.7597C20.6397 67.7597 26.9333 70.7414 26.9772 77.6986H18.7919C18.9235 74.89 16.2394 73.9826 13.7309 73.9826C11.971 73.9826 9.77031 74.5875 9.77031 76.6182C9.77031 78.9953 14.3031 79.4268 18.8796 80.6805C23.4123 81.9333 27.989 84.0079 27.989 89.5822C27.989 97.4034 21.2118 99.9097 14.3031 99.9097C7.08555 99.9097 0.70498 96.7986 0.660156 88.8912H8.8455Z" fill="white"/>
<path fill-rule="evenodd" clip-rule="evenodd" d="M30.4069 68.4075H55.4474V74.8467H38.5923V80.248H53.9951V86.471H38.5923V92.3476H55.8869V99.2617H30.4069V68.4075Z" fill="white"/>
<path fill-rule="evenodd" clip-rule="evenodd" d="M59.1412 68.4075H67.3265V92.3476H81.981V99.2617H59.1412V68.4075Z" fill="white"/>
<path fill-rule="evenodd" clip-rule="evenodd" d="M84.6194 68.4075H92.8047V92.3476H107.459V99.2617H84.6194V68.4075Z" fill="white"/>
</g>
<defs>
<clipPath id="clip0_630_86590">
<rect width="107.218" height="100" fill="white" transform="translate(0.390869)"/>
</clipPath>
</defs>
</svg>
