<svg width="214" height="54" viewBox="0 0 214 54" fill="none" xmlns="http://www.w3.org/2000/svg">
<path d="M14.6586 35.4775C14.8136 38.5207 15.8213 40.622 17.6816 41.7813C19.5418 42.9406 22.0222 43.5203 25.1227 43.5203C26.2079 43.5203 27.2672 43.4236 28.3007 43.2304C29.3858 43.0372 30.3418 42.7474 31.1686 42.3609C31.9954 41.9262 32.6672 41.3707 33.1839 40.6944C33.7007 40.0182 33.959 39.197 33.959 38.2309C33.959 37.0716 33.494 36.1296 32.5638 35.4051C31.6854 34.6805 30.4968 34.0525 28.9983 33.5212C27.4997 32.9898 25.7945 32.5309 23.8825 32.1445C22.0222 31.7098 20.0844 31.2267 18.0691 30.6954C16.1055 30.164 14.1418 29.536 12.1782 28.8115C10.2663 28.0869 8.53516 27.1691 6.98492 26.0581C5.48636 24.8988 4.24617 23.498 3.26436 21.8556C2.33421 20.1649 1.86914 18.1361 1.86914 15.7692C1.86914 12.9675 2.54091 10.5764 3.88445 8.59595C5.27966 6.56715 7.06243 4.92479 9.23277 3.66887C11.4031 2.41295 13.8318 1.49516 16.5189 0.915506C19.206 0.335849 21.8414 0.0460205 24.4251 0.0460205C27.1638 0.0460205 29.8509 0.384153 32.4863 1.06042C35.1734 1.68838 37.5504 2.67863 39.6174 4.03116C41.6844 5.38369 43.3638 7.12266 44.6557 9.24806C45.9475 11.3252 46.5935 13.8129 46.5935 16.7111H32.1763C32.2279 15.5518 31.9954 14.5857 31.4787 13.8129C30.9619 12.9917 30.2643 12.3396 29.3858 11.8565C28.559 11.3735 27.6031 11.0353 26.5179 10.8421C25.4327 10.6006 24.3476 10.4798 23.2624 10.4798C22.4873 10.4798 21.6863 10.5523 20.8595 10.6972C20.0327 10.8421 19.2835 11.0836 18.6117 11.4218C17.9399 11.7599 17.3715 12.2188 16.9064 12.7985C16.493 13.3298 16.2863 14.0302 16.2863 14.8997C16.2863 15.9141 16.7256 16.7353 17.604 17.3633C18.5342 17.9912 19.7485 18.5467 21.2471 19.0298C22.7973 19.5128 24.5284 19.9476 26.4404 20.334C28.3523 20.7204 30.316 21.1793 32.3313 21.7107C34.3466 22.242 36.3102 22.8941 38.2222 23.667C40.1341 24.3916 41.8394 25.3335 43.338 26.4928C44.8365 27.6039 46.0509 29.0047 46.981 30.6954C47.9112 32.3377 48.3762 34.3182 48.3762 36.6368C48.3762 39.9216 47.6786 42.6749 46.2834 44.8969C44.9399 47.1189 43.1313 48.9062 40.8576 50.2588C38.6356 51.563 36.0777 52.5049 33.1839 53.0846C30.2901 53.6642 27.3189 53.9541 24.2701 53.9541C21.0662 53.9541 18.0174 53.6159 15.1237 52.9397C12.2816 52.2634 9.74951 51.1765 7.52751 49.6791C5.3055 48.1817 3.52273 46.2736 2.17919 43.955C0.887326 41.6364 0.241394 38.8105 0.241394 35.4775H14.6586Z" fill="#2E9A60"/>
<path d="M67.4435 27C67.4435 28.9322 67.6761 30.8161 68.1411 32.6517C68.6062 34.4873 69.3555 36.1296 70.389 37.5788C71.4225 39.0279 72.7402 40.1872 74.3421 41.0567C75.9957 41.9262 77.9851 42.3609 80.3105 42.3609C82.6359 42.3609 84.5995 41.9262 86.2014 41.0567C87.855 40.1872 89.1985 39.0279 90.232 37.5788C91.2655 36.1296 92.0148 34.4873 92.4799 32.6517C92.9449 30.8161 93.1775 28.9322 93.1775 27C93.1775 25.0679 92.9449 23.184 92.4799 21.3484C92.0148 19.5128 91.2655 17.8705 90.232 16.4213C89.1985 14.9722 87.855 13.8129 86.2014 12.9434C84.5995 12.0739 82.6359 11.6391 80.3105 11.6391C77.9851 11.6391 75.9957 12.0739 74.3421 12.9434C72.7402 13.8129 71.4225 14.9722 70.389 16.4213C69.3555 17.8705 68.6062 19.5128 68.1411 21.3484C67.6761 23.184 67.4435 25.0679 67.4435 27ZM53.0263 27C53.0263 23.2323 53.6206 19.7302 54.8091 16.4938C56.0493 13.209 57.8321 10.3591 60.1574 7.94384C62.4828 5.4803 65.3249 3.54811 68.6837 2.14727C72.0942 0.746438 75.9698 0.0460205 80.3105 0.0460205C84.6512 0.0460205 88.5009 0.746438 91.8598 2.14727C95.2703 3.54811 98.1382 5.4803 100.464 7.94384C102.789 10.3591 104.546 13.209 105.734 16.4938C106.975 19.7302 107.595 23.2323 107.595 27C107.595 30.7678 106.975 34.294 105.734 37.5788C104.546 40.8152 102.789 43.6652 100.464 46.1287C98.1382 48.5439 95.2703 50.452 91.8598 51.8528C88.5009 53.2536 84.6512 53.9541 80.3105 53.9541C75.9698 53.9541 72.0942 53.2536 68.6837 51.8528C65.3249 50.452 62.4828 48.5439 60.1574 46.1287C57.8321 43.6652 56.0493 40.8152 54.8091 37.5788C53.6206 34.294 53.0263 30.7678 53.0263 27Z" fill="#2E9A60"/>
<path d="M115.448 1.13287H129.865V41.2741H155.677V52.8672H115.448V1.13287Z" fill="#2E9A60"/>
<path d="M177.251 41.2741H184.072C186.81 41.2258 189.136 40.9359 191.048 40.4046C193.011 39.8249 194.587 38.9555 195.776 37.7961C197.016 36.6368 197.92 35.1635 198.489 33.3763C199.057 31.5407 199.341 29.3187 199.341 26.7102C199.341 21.9764 198.024 18.4743 195.388 16.2039C192.805 13.8853 189.032 12.726 184.072 12.726H177.251V41.2741ZM162.833 1.13287H186.629C190.867 1.13287 194.665 1.71253 198.024 2.87184C201.383 4.03116 204.225 5.72182 206.55 7.94384C208.875 10.1659 210.658 12.8709 211.898 16.059C213.139 19.1988 213.759 22.7734 213.759 26.7827C213.759 31.0335 213.139 34.7771 211.898 38.0135C210.658 41.2499 208.85 43.9791 206.473 46.2012C204.147 48.3749 201.305 50.0414 197.946 51.2007C194.587 52.3117 190.815 52.8672 186.629 52.8672H162.833V1.13287Z" fill="#2E9A60"/>
</svg>
