<svg width="16" height="16" viewBox="0 0 16 16" fill="none" xmlns="http://www.w3.org/2000/svg">
<path fill-rule="evenodd" clip-rule="evenodd" d="M8 9.99998C9.10467 9.99998 10 9.10465 10 7.99998C10 6.89531 9.10467 5.99998 8 5.99998C6.89533 5.99998 6 6.89531 6 7.99998C6 9.10465 6.89533 9.99998 8 9.99998ZM8 5.33331C9.47267 5.33331 10.6667 6.52731 10.6667 7.99998C10.6667 9.47265 9.47267 10.6666 8 10.6666C6.52733 10.6666 5.33333 9.47265 5.33333 7.99998C5.33333 6.52731 6.52733 5.33331 8 5.33331ZM1.12667 8.24798C1.638 8.79398 2.19133 9.31998 2.80267 9.81398C4.504 11.1886 6.26467 12 8 12C9.73533 12 11.496 11.1886 13.1973 9.81398C13.8087 9.31998 14.362 8.79398 14.8733 8.24798C14.9553 8.16065 15.028 8.08131 15.1013 7.99998C15.028 7.91865 14.9553 7.83931 14.8733 7.75198C14.362 7.20598 13.8087 6.67998 13.1973 6.18598C11.496 4.81131 9.73533 3.99998 8 3.99998C6.26467 3.99998 4.504 4.81131 2.80267 6.18598C2.19133 6.67998 1.638 7.20598 1.12667 7.75198C1.04467 7.83931 0.971999 7.91865 0.898665 7.99998C0.971999 8.08131 1.04467 8.16065 1.12667 8.24798ZM0.00133514 8.00131C0.0160017 7.99865 0.164668 7.81865 0.420668 7.53531V7.53465C0.424668 7.53065 0.43 7.52531 0.433334 7.52131C0.439334 7.51465 0.443335 7.50998 0.449334 7.50265C0.449334 7.50331 0.450001 7.50331 0.450001 7.50331C1.54133 6.30131 4.50867 3.33331 8 3.33331C11.4913 3.33331 14.4587 6.30131 15.55 7.50331C15.55 7.50331 15.5507 7.50331 15.5507 7.50265C15.5567 7.50931 15.5607 7.51398 15.5667 7.52065C15.57 7.52531 15.5753 7.53065 15.5793 7.53465V7.53531C15.85 7.83398 16 8.01798 16 7.99998C16 7.98198 15.85 8.16531 15.5793 8.46465V8.46531C15.5753 8.46931 15.57 8.47465 15.5667 8.47931C15.5607 8.48598 15.5567 8.48998 15.5507 8.49731C15.5507 8.49665 15.55 8.49665 15.55 8.49665C14.4587 9.69865 11.4913 12.6666 8 12.6666C4.50867 12.6666 1.54133 9.69865 0.450001 8.49665C0.450001 8.49665 0.449334 8.49665 0.449334 8.49731C0.443335 8.48998 0.438667 8.48531 0.432668 8.47865C0.429335 8.47465 0.424668 8.46931 0.420668 8.46531V8.46465C0.165335 8.18198 0.0166683 8.00265 0.00133514 8.00131Z" fill="#111111"/>
</svg>
