<svg width="50" height="57" viewBox="0 0 50 57" fill="none" xmlns="http://www.w3.org/2000/svg">
<path d="M24.9993 56.4891L24.4068 55.3106C23.0288 52.6443 20.8929 49.4768 17.9761 45.9573L18.9682 44.8535C21.2009 47.4713 23.2156 50.328 24.9855 53.3856C26.7587 50.3293 28.7748 47.4727 31.0074 44.8535L31.9996 45.9573C29.0966 49.4768 26.9469 52.623 25.5689 55.3106L24.9993 56.4891Z" fill="#2E9A60"/>
<path d="M45.6557 29.9118L44.5578 28.9786C44.8105 28.5733 45.0539 28.1627 45.2882 27.7414C50.6073 18.2709 48.6735 11.6052 46.1196 7.68049C44.7452 5.47654 42.8045 3.83506 40.5761 2.99192C38.3478 2.14877 35.9466 2.14736 33.7175 2.98787C29.2987 4.50764 25.9318 8.59769 25.6883 12.7037H24.3103C24.0715 8.59769 20.6999 4.50764 16.3041 2.98787C14.0733 2.15052 11.6713 2.15627 9.4435 3.0043C7.21574 3.85233 5.27713 5.49892 3.9066 7.70716C1.34809 11.6319 -0.581117 18.2975 4.738 27.7681C4.97226 28.1894 5.19733 28.6 5.46834 29.0053L4.34756 29.9118C4.08574 29.4905 3.82851 29.0373 3.58506 28.616C-0.916433 20.6172 -1.18285 12.8424 2.80878 6.71531C6.16194 1.57476 11.3524 -0.392946 16.6991 1.45744C20.5805 2.7959 23.6718 5.85144 24.9993 9.4029C26.3314 5.85144 29.4227 2.7959 33.3041 1.45744C38.6462 -0.392946 43.8413 1.57476 47.1944 6.71531C51.1861 12.8424 50.9105 20.6172 46.4182 28.616C46.1747 29.0373 45.9359 29.4852 45.6557 29.9118Z" fill="#2E9A60"/>
<path d="M24.2505 27.6134H21.8298L19.9511 18.8521H19.919L18.0816 27.6134H15.6196L12.6707 14.7407H15.1051L16.8598 23.5021H16.892L18.8349 14.7407H21.1316L23.0287 23.6087H23.0562L24.8936 14.7407H27.2821L24.2505 27.6134Z" fill="#2E9A60"/>
<path d="M27.8931 14.7407H36.1611V17.119H30.3184V19.8813H35.7018V22.1049H30.3184V25.2618H36.2897V27.6401H27.8931V14.7407Z" fill="#2E9A60"/>
<path d="M6.26294 30.5144H8.69742V41.0035H14.1038V43.3871H6.26294V30.5144Z" fill="#2E9A60"/>
<path d="M19.6572 30.2104C23.0884 30.2104 25.1049 33.1807 25.1049 37.0041C25.1049 40.7369 23.0884 43.6911 19.6572 43.6911C16.2259 43.6911 14.2048 40.7155 14.2048 37.0041C14.2048 33.1807 16.2259 30.2104 19.6572 30.2104ZM19.6572 41.3128C21.8436 41.3128 22.6658 39.1478 22.6658 37.0041C22.6658 34.7484 21.8436 32.5888 19.6572 32.5888C17.4707 32.5888 16.6439 34.7484 16.6439 37.0041C16.6439 39.1691 17.4569 41.3021 19.6572 41.3021V41.3128Z" fill="#2E9A60"/>
<path d="M31.0809 43.3871H28.3249L24.7283 30.5144H27.2454L29.7121 39.5797H29.7442L32.243 30.5144H34.7602L31.0809 43.3871Z" fill="#2E9A60"/>
<path d="M35.3252 30.5144H43.6392V32.8927H37.7643V35.6496H43.1339V37.852H37.7643V41.0035H43.7356V43.3871H35.3252V30.5144Z" fill="#2E9A60"/>
</svg>
