<svg width="18" height="20" viewBox="0 0 18 20" fill="none" xmlns="http://www.w3.org/2000/svg">
<path d="M17.5145 0.440777H15.4388C15.3712 0.439046 15.3051 0.460714 15.2517 0.502113C15.1982 0.543512 15.1607 0.6021 15.1455 0.667961L14.7747 2.3068C13.2038 0.654369 11.631 0 9.36302 0C6.63098 0 4.29895 1.02718 2.62128 2.96893C1.05623 4.78058 0.194092 7.27767 0.194092 10C0.194092 12.7223 1.05623 15.2194 2.62128 17.0311C4.29895 18.9728 6.63098 20 9.36302 20C13.8931 20 17.13 17.4136 17.596 13.4097C17.601 13.3688 17.5972 13.3273 17.5849 13.288C17.5726 13.2486 17.5521 13.2123 17.5248 13.1815C17.4974 13.1507 17.4639 13.126 17.4263 13.1091C17.3887 13.0922 17.3479 13.0835 17.3067 13.0835H14.1397C14.0689 13.0838 14.0006 13.1097 13.9474 13.1565C13.8942 13.2033 13.8598 13.2677 13.8504 13.3379C13.6562 14.9204 12.3533 16.7689 9.36302 16.7689C5.42128 16.7689 4.02128 13.1223 4.02128 10C4.02128 6.87767 5.42128 3.23107 9.36885 3.23107H9.48924C12.3786 3.23107 14.0989 4.86408 14.2543 7.73786H9.62322C9.54597 7.73786 9.47189 7.76855 9.41726 7.82317C9.36264 7.8778 9.33195 7.95188 9.33195 8.02913V10.4854C9.33195 10.5627 9.36264 10.6368 9.41726 10.6914C9.47189 10.746 9.54597 10.7767 9.62322 10.7767H17.5145C17.5917 10.7767 17.6658 10.746 17.7204 10.6914C17.7751 10.6368 17.8057 10.5627 17.8057 10.4854V0.732039C17.8057 0.654791 17.7751 0.580708 17.7204 0.526085C17.6658 0.471463 17.5917 0.440777 17.5145 0.440777Z" fill="#2E9A60"/>
</svg>
