<svg width="32" height="32" viewBox="0 0 32 32" fill="none" xmlns="http://www.w3.org/2000/svg">
<path d="M16 30.3174C15.9282 30.3176 15.8577 30.2988 15.7955 30.2631C15.7332 30.2274 15.6815 30.176 15.6453 30.114C13.6274 26.6719 9.22022 22.7101 6.58638 20.343L6.44067 20.2137C4.27147 18.2645 2.53391 15.8149 1.66788 13.4944C0.510425 10.3932 0.862336 7.47897 2.68512 5.07058C4.69761 2.41201 7.81257 1.39751 11.0183 2.35152C13.3469 3.04435 15.2027 4.62519 16 6.47548C16.7973 4.62519 18.6531 3.04435 20.9817 2.35152C24.1874 1.39751 27.3051 2.41201 29.3149 5.07058C31.1377 7.47897 31.4896 10.3932 30.3321 13.4944C29.4688 15.8149 27.7285 18.2645 25.5593 20.2137L25.4164 20.343C22.7825 22.7101 18.3754 26.6664 16.3574 30.1167C16.3203 30.1783 16.2679 30.2291 16.2052 30.2643C16.1426 30.2995 16.0718 30.3178 16 30.3174V30.3174ZM8.69785 2.8244C7.65154 2.82543 6.62047 3.07527 5.68974 3.5533C4.75901 4.03134 3.95531 4.72385 3.34496 5.5737C1.67613 7.77315 1.37096 10.341 2.44044 13.2058C3.26523 15.4052 4.91481 17.7366 6.99053 19.6006L7.13625 19.7299C9.66286 22.0008 13.7978 25.7178 16 29.1215C18.1994 25.7178 22.3399 22.0008 24.8638 19.7299L25.0095 19.6006C27.0797 17.7366 28.7403 15.408 29.5596 13.2058C30.629 10.341 30.3239 7.77315 28.6578 5.5737C27.8348 4.4331 26.6709 3.58319 25.334 3.14642C23.997 2.70965 22.5558 2.70856 21.2182 3.14332C18.5788 3.92412 16.5581 6.04109 16.4124 8.16355C16.4124 8.27292 16.3689 8.37782 16.2916 8.45516C16.2143 8.53249 16.1094 8.57594 16 8.57594C15.8906 8.57594 15.7857 8.53249 15.7084 8.45516C15.6311 8.37782 15.5876 8.27292 15.5876 8.16355C15.4419 6.04109 13.4212 3.92412 10.7818 3.14332C10.1063 2.93673 9.40428 2.8293 8.69785 2.8244V2.8244Z" fill="#E25B8B"/>
</svg>
