<svg width="50" height="50" viewBox="0 0 50 50" fill="none" xmlns="http://www.w3.org/2000/svg">
<path d="M14.4496 40.7469C14.3612 40.7463 14.2738 40.7279 14.1927 40.6928L3.00855 36.0812C2.88472 36.031 2.77868 35.945 2.704 35.8342C2.62931 35.7234 2.58939 35.5928 2.58932 35.4592V26.8941C2.58839 26.7826 2.61505 26.6726 2.66693 26.5739C2.7188 26.4752 2.79429 26.3908 2.88666 26.3284C2.97903 26.2659 3.08542 26.2272 3.19635 26.2158C3.30728 26.2044 3.41931 26.2206 3.52246 26.263L14.7111 30.8746C14.8344 30.9263 14.9397 31.0135 15.0135 31.125C15.0873 31.2365 15.1264 31.3675 15.1258 31.5012V40.0662C15.1246 40.2452 15.053 40.4165 14.9265 40.5431C14.7999 40.6696 14.6286 40.7412 14.4496 40.7424V40.7469ZM3.94169 35.0039L13.7734 39.061V31.952L3.94169 27.8949V35.0039Z" fill="#111111"/>
<path d="M25.2461 48.2165C25.1562 48.2164 25.0672 48.198 24.9846 48.1624L0.416514 37.9295C0.293165 37.879 0.187739 37.7928 0.113822 37.682C0.0399054 37.5711 0.000884044 37.4406 0.00178646 37.3074V12.7302C-0.000517607 12.6164 0.025957 12.5038 0.0787556 12.403C0.131554 12.3021 0.208967 12.2162 0.303816 12.1532C0.396426 12.0911 0.503125 12.0532 0.614161 12.043C0.725197 12.0327 0.837028 12.0505 0.939432 12.0946L25.2461 22.2329L49.0524 12.4147C49.1555 12.3732 49.2672 12.3572 49.3779 12.3682C49.4886 12.3792 49.595 12.4168 49.688 12.4778C49.7809 12.5395 49.8571 12.6233 49.9098 12.7216C49.9625 12.8199 49.9901 12.9297 49.99 13.0413V37.6184C49.9896 37.7525 49.9496 37.8836 49.8751 37.9951C49.8005 38.1065 49.6946 38.1935 49.5708 38.245L25.503 48.1624C25.4214 48.196 25.3343 48.2144 25.2461 48.2165ZM1.35416 36.8566L25.2461 46.81L48.6376 37.1631V14.0511L25.5121 23.5898C25.3458 23.6572 25.1599 23.6572 24.9936 23.5898L1.35416 13.7445V36.8566Z" fill="#111111"/>
<path d="M25.2461 23.6394C25.1567 23.6386 25.0681 23.6219 24.9846 23.5898L0.416531 13.3569C0.293199 13.3056 0.187821 13.2189 0.11369 13.1078C0.0395605 12.9967 0 12.8661 0 12.7325C0 12.599 0.0395605 12.4684 0.11369 12.3573C0.187821 12.2461 0.293199 12.1595 0.416531 12.1082L24.9937 1.83916C25.0775 1.80242 25.1681 1.78345 25.2596 1.78345C25.3512 1.78345 25.4417 1.80242 25.5256 1.83916L49.5888 12.4237C49.7108 12.4757 49.8148 12.5624 49.8879 12.673C49.961 12.7836 50 12.9132 50 13.0458C50 13.1784 49.961 13.3081 49.8879 13.4187C49.8148 13.5293 49.7108 13.616 49.5888 13.6679L25.5211 23.5853C25.4338 23.6212 25.3404 23.6395 25.2461 23.6394ZM2.43608 12.7303L25.2461 22.233L47.5873 13.0188L25.2461 3.19605L2.43608 12.7303Z" fill="#111111"/>
<path d="M15.207 24.0046C15.1147 24.004 15.0234 23.9844 14.9389 23.9472C14.8544 23.91 14.7784 23.8559 14.7157 23.7882L12.5744 21.4937L11.0372 22.1112C10.935 22.1539 10.8238 22.1705 10.7137 22.1595C10.6035 22.1485 10.4978 22.1102 10.4061 22.0481C10.3146 21.9853 10.2397 21.9012 10.1878 21.8031C10.136 21.7049 10.1088 21.5956 10.1086 21.4846V16.9001C10.1091 16.7677 10.1481 16.6384 10.221 16.5279C10.2938 16.4174 10.3973 16.3306 10.5188 16.278L34.5234 6.04504L35.0553 7.28923L11.4609 17.3509V20.4839L12.5023 20.0646C12.6286 20.0144 12.7672 20.0035 12.8999 20.0332C13.0326 20.063 13.1532 20.1321 13.2461 20.2314L14.5308 21.6199V18.7934C14.5311 18.6604 14.5706 18.5305 14.6444 18.4198C14.7182 18.3092 14.8229 18.2227 14.9456 18.1713L38.9502 7.93837L39.4776 9.18255L15.8832 19.2397V23.3284C15.8839 23.464 15.8434 23.5966 15.7669 23.7085C15.6903 23.8204 15.5815 23.9064 15.4549 23.955C15.3762 23.9869 15.292 24.0038 15.207 24.0046Z" fill="#111111"/>
<path d="M25.2461 48.2166C25.0667 48.2166 24.8947 48.1454 24.7679 48.0186C24.6411 47.8918 24.5699 47.7198 24.5699 47.5404V22.9723C24.5699 22.793 24.6411 22.621 24.7679 22.4942C24.8947 22.3674 25.0667 22.2961 25.2461 22.2961C25.4254 22.2961 25.5974 22.3674 25.7242 22.4942C25.851 22.621 25.9222 22.793 25.9222 22.9723V47.5404C25.9222 47.7198 25.851 47.8918 25.7242 48.0186C25.5974 48.1454 25.4254 48.2166 25.2461 48.2166Z" fill="#111111"/>
</svg>
