<svg width="32" height="32" viewBox="0 0 32 32" fill="none" xmlns="http://www.w3.org/2000/svg">
<path d="M31.8581 31.1861L22.2581 21.5861C22.2305 21.5611 22.1992 21.5406 22.1653 21.5253C24.4527 19.0702 25.6845 15.815 25.5955 12.4606C25.5065 9.10616 24.1039 5.92085 21.6895 3.59042C19.2752 1.26 16.0423 -0.0291643 12.6868 0.000500854C9.3314 0.030166 6.12178 1.37628 3.74903 3.74903C1.37628 6.12178 0.030166 9.3314 0.000500854 12.6868C-0.0291643 16.0423 1.26 19.2752 3.59042 21.6895C5.92085 24.1039 9.10616 25.5065 12.4606 25.5955C15.815 25.6845 19.0702 24.4527 21.5253 22.1653C21.5406 22.1992 21.5611 22.2305 21.5861 22.2581L31.1861 31.8581C31.2761 31.948 31.3981 31.9985 31.5253 31.9985C31.6525 31.9985 31.7745 31.948 31.8645 31.8581C31.9524 31.7679 32.001 31.6467 31.9998 31.5208C31.9986 31.3949 31.9477 31.2746 31.8581 31.1861ZM12.7989 24.6453C10.4572 24.6453 8.16803 23.9509 6.22096 22.6499C4.27388 21.3489 2.75632 19.4998 1.86018 17.3363C0.964034 15.1728 0.729562 12.7922 1.18641 10.4954C1.64326 8.1987 2.77091 6.08902 4.42676 4.43316C6.08262 2.77731 8.1923 1.64966 10.489 1.19281C12.7858 0.735962 15.1664 0.970434 17.3299 1.86658C19.4934 2.76272 21.3425 4.28028 22.6435 6.22736C23.9445 8.17443 24.6389 10.4636 24.6389 12.8053C24.6389 15.9455 23.3915 18.957 21.1711 21.1775C18.9506 23.3979 15.9391 24.6453 12.7989 24.6453Z" fill="#111111"/>
</svg>
